<svg xmlns="http://www.w3.org/2000/svg" xmlns:xlink="http://www.w3.org/1999/xlink" viewBox="0 0 50 50" version="1.1">
  <g id="surface1" style="fill: #1e9a53;">
    <path style=" " d="M 25 2 C 21.699219 2 19 4.699219 19 8 C 19 11.300781 21.699219 14 25 14 C 28.300781 14 31 11.300781 31 8 C 31 4.699219 28.300781 2 25 2 Z M 25 4 C 27.222656 4 29 5.777344 29 8 C 29 10.222656 27.222656 12 25 12 C 22.777344 12 21 10.222656 21 8 C 21 5.777344 22.777344 4 25 4 Z M 20.5 15 C 17.476563 15 15 17.476563 15 20.5 L 15 31.8125 C 14.996094 31.855469 14.996094 31.894531 15 31.9375 L 15 32 C 14.996094 32.09375 15.007813 32.191406 15.03125 32.28125 C 15.179688 33.792969 16.453125 35 18 35 C 18.351563 35 18.683594 34.925781 19 34.8125 L 19 44.5 C 19 46.421875 20.578125 48 22.5 48 C 23.476563 48 24.363281 47.589844 25 46.9375 C 25.636719 47.589844 26.523438 48 27.5 48 C 29.421875 48 31 46.421875 31 44.5 L 31 34.8125 C 31.316406 34.925781 31.648438 35 32 35 C 33.589844 35 34.914063 33.726563 35 32.15625 C 35.003906 32.105469 35.003906 32.050781 35 32 C 35 31.96875 35 31.9375 35 31.90625 L 35 20.5 C 35 17.476563 32.523438 15 29.5 15 Z M 20.5 17 L 29.5 17 C 31.441406 17 33 18.5625 33 20.5 L 33 31.84375 C 33 31.875 33 31.90625 33 31.9375 L 33 32 C 33 32.03125 33 32.0625 33 32.09375 C 32.953125 32.613281 32.53125 33 32 33 C 31.433594 33 31 32.566406 31 32 L 31 31.90625 C 31 31.875 31 31.84375 31 31.8125 L 31 23 L 29 23 L 29 31.8125 C 28.996094 31.855469 28.996094 31.894531 29 31.9375 L 29 44.5 C 29 45.339844 28.339844 46 27.5 46 C 26.710938 46 26.074219 45.421875 26 44.65625 C 25.996094 44.605469 26 44.550781 26 44.5 L 26 33 L 24 33 L 24 44.65625 C 23.925781 45.421875 23.289063 46 22.5 46 C 21.660156 46 21 45.339844 21 44.5 L 21 23 L 19 23 L 19 31.84375 C 19 31.875 19 31.90625 19 31.9375 L 19 32 C 19 32.566406 18.566406 33 18 33 C 17.457031 33 17.03125 32.597656 17 32.0625 C 17 32.042969 17 32.019531 17 32 C 17.007813 31.9375 17.007813 31.875 17 31.8125 L 17 20.5 C 17 18.5625 18.558594 17 20.5 17 Z "></path>
  </g>
</svg>