<svg xmlns="http://www.w3.org/2000/svg" xmlns:xlink="http://www.w3.org/1999/xlink" viewBox="0 0 50 50" version="1.1">
  <g id="surface1" style="fill: #1e9a53;">
    <path style=" " d="M 5.8125 2 C 5.335938 2.089844 4.992188 2.511719 5 3 L 5 8 L 2.84375 8 C 1.28125 8 0 9.28125 0 10.84375 L 0 44.15625 C 0 45.71875 1.28125 47 2.84375 47 L 19.53125 47 C 20.003906 47.730469 21.621094 50 25 50 C 28.378906 50 29.996094 47.730469 30.46875 47 L 47.15625 47 C 48.71875 47 50 45.71875 50 44.15625 L 50 10.84375 C 50 9.28125 48.71875 8 47.15625 8 L 45 8 L 45 3 C 45 2.449219 44.550781 2 44 2 C 36.367188 2 31.4375 3.542969 28.40625 5.125 C 26.890625 5.917969 25.859375 6.691406 25.1875 7.3125 C 25.105469 7.386719 25.070313 7.429688 25 7.5 C 24.929688 7.429688 24.894531 7.386719 24.8125 7.3125 C 24.140625 6.691406 23.109375 5.917969 21.59375 5.125 C 18.5625 3.542969 13.632813 2 6 2 C 5.96875 2 5.9375 2 5.90625 2 C 5.875 2 5.84375 2 5.8125 2 Z M 7 4.0625 C 13.738281 4.199219 18.074219 5.527344 20.65625 6.875 C 22.015625 7.582031 22.921875 8.308594 23.46875 8.8125 C 23.898438 9.207031 23.9375 9.320313 24 9.40625 L 24 41.25 C 23.335938 40.886719 22.609375 40.480469 21.40625 40.0625 C 18.554688 39.074219 13.878906 38.160156 7 38.0625 Z M 43 4.0625 L 43 38.0625 C 36.121094 38.160156 31.445313 39.074219 28.59375 40.0625 C 27.390625 40.480469 26.664063 40.886719 26 41.25 L 26 9.40625 C 26.0625 9.320313 26.101563 9.207031 26.53125 8.8125 C 27.078125 8.308594 27.984375 7.582031 29.34375 6.875 C 31.925781 5.527344 36.261719 4.199219 43 4.0625 Z M 2.84375 10 L 5 10 L 5 39 C 5 39.550781 5.449219 40 6 40 C 13.367188 40 18.023438 40.980469 20.78125 41.9375 C 22.160156 42.414063 23.042969 42.882813 23.59375 43.21875 C 24.023438 43.480469 24.183594 43.601563 24.25 43.65625 C 24.472656 43.898438 24.800781 44.015625 25.125 43.96875 C 25.136719 43.96875 25.144531 43.96875 25.15625 43.96875 C 25.316406 43.941406 25.464844 43.878906 25.59375 43.78125 C 25.675781 43.730469 25.75 43.667969 25.8125 43.59375 C 25.917969 43.511719 26.097656 43.40625 26.40625 43.21875 C 26.957031 42.882813 27.839844 42.414063 29.21875 41.9375 C 31.976563 40.980469 36.632813 40 44 40 C 44.550781 40 45 39.550781 45 39 L 45 10 L 47.15625 10 C 47.632813 10 48 10.363281 48 10.84375 L 48 44.15625 C 48 44.636719 47.632813 45 47.15625 45 L 30 45 C 29.640625 44.996094 29.304688 45.1875 29.125 45.5 C 29.125 45.5 27.730469 48 25 48 C 22.269531 48 20.875 45.5 20.875 45.5 C 20.695313 45.1875 20.359375 44.996094 20 45 L 2.84375 45 C 2.367188 45 2 44.636719 2 44.15625 L 2 10.84375 C 2 10.363281 2.367188 10 2.84375 10 Z "></path>
  </g>
</svg>