<svg version="1.1" xmlns="http://www.w3.org/2000/svg" xmlns:xlink="http://www.w3.org/1999/xlink" viewBox="0 0 252 252">
  <g fill="none" fill-rule="nonzero" stroke="none" stroke-width="1" stroke-linecap="butt" stroke-linejoin="miter" stroke-miterlimit="10" stroke-dasharray="" stroke-dashoffset="0" font-family="none" font-weight="none" font-size="none" text-anchor="none" style="mix-blend-mode: normal">
    <path d="M0,252v-252h252v252z" fill="none"></path>
    <g id="Two-Tone" fill="#ecf0f1">
      <path d="M173.25,31.5c-30.3975,0 -47.25,21.945 -47.25,21.945c0,0 -16.8525,-21.945 -47.25,-21.945c-31.899,0 -57.75,25.851 -57.75,57.75c0,43.7955 51.576,86.2365 65.9505,99.645c16.5585,15.435 39.0495,35.28 39.0495,35.28c0,0 22.491,-19.845 39.0495,-35.28c14.3745,-13.4085 65.9505,-55.8495 65.9505,-99.645c0,-31.899 -25.851,-57.75 -57.75,-57.75zM155.5155,169.155c-1.8585,1.68 -3.4755,3.1395 -4.788,4.368c-7.8855,7.35 -17.2095,15.7815 -24.7275,22.5225c-7.518,-6.741 -16.8525,-15.183 -24.7275,-22.5225c-1.323,-1.2285 -2.94,-2.6985 -4.788,-4.368c-14.91,-13.4715 -54.4845,-49.2555 -54.4845,-79.905c0,-20.265 16.485,-36.75 36.75,-36.75c19.1835,0 30.303,13.3875 30.597,13.734l16.653,17.766l16.653,-17.766c0.105,-0.1365 11.4135,-13.734 30.597,-13.734c20.265,0 36.75,16.485 36.75,36.75c0,30.6495 -39.5745,66.4335 -54.4845,79.905z"></path>
      <g opacity="0.3">
        <path d="M159.2115,174.7725c-2.0895,1.89 -3.906,3.528 -5.3865,4.914c-8.862,8.2635 -19.362,17.7555 -27.825,25.3365c-8.4525,-7.581 -18.9525,-17.073 -27.825,-25.3365c-1.4805,-1.386 -3.3075,-3.0345 -5.3865,-4.914c-16.758,-15.162 -61.2885,-55.4295 -61.2885,-89.901c0,-22.7955 18.543,-41.349 41.3385,-41.349c21.5775,0 34.0935,15.057 34.419,15.456l18.7425,19.992l18.732,-19.9815c0.1155,-0.1575 12.8415,-15.456 34.419,-15.456c22.806,0 41.349,18.543 41.349,41.3385c0,34.4715 -44.5305,74.739 -61.2885,89.901z"></path>
      </g>
    </g>
  </g>
</svg>