<!DOCTYPE svg PUBLIC "-//W3C//DTD SVG 20010904//EN" "http://www.w3.org/TR/2001/REC-SVG-20010904/DTD/svg10.dtd">
<svg version="1.0" xmlns="http://www.w3.org/2000/svg" width="621px" height="404px" viewBox="0 0 6210 4040" preserveAspectRatio="xMidYMid meet">
<g id="layer101" fill="#6ab04c" stroke="none">
 <path d="M2490 4030 c-138 -14 -312 -39 -335 -50 -11 -5 -65 -19 -120 -30 -55 -12 -113 -28 -130 -36 -16 -7 -61 -23 -100 -35 -38 -12 -72 -24 -75 -28 -3 -4 -34 -18 -70 -30 -36 -13 -67 -27 -70 -31 -3 -3 -31 -17 -62 -30 -32 -13 -58 -27 -58 -31 0 -4 -29 -19 -65 -34 -36 -16 -65 -31 -65 -35 0 -3 -22 -17 -50 -31 -27 -13 -50 -27 -50 -31 0 -4 -13 -14 -29 -23 -16 -8 -35 -21 -43 -28 -7 -8 -31 -25 -53 -39 -22 -14 -51 -35 -65 -46 -147 -124 -197 -168 -261 -233 -165 -167 -293 -327 -378 -473 -13 -23 -27 -43 -31 -46 -4 -3 -18 -25 -30 -50 -12 -25 -26 -47 -29 -50 -4 -3 -18 -30 -30 -60 -13 -30 -27 -57 -31 -60 -3 -3 -17 -32 -31 -65 -13 -33 -27 -62 -30 -65 -4 -3 -17 -39 -30 -80 -13 -41 -28 -78 -34 -82 -5 -4 -6 -8 -1 -8 5 0 4 -6 -2 -12 -5 -7 -20 -53 -32 -103 -12 -49 -26 -95 -30 -100 -12 -14 -60 -312 -60 -367 0 -25 7 -58 15 -74 17 -34 68 -63 112 -64 17 0 33 -6 36 -12 3 -10 78 -13 332 -13 254 0 329 3 333 13 2 6 15 12 30 12 53 0 287 43 294 54 4 6 8 -56 8 -139 0 -167 16 -379 29 -410 5 -11 19 -78 31 -150 12 -71 26 -134 30 -140 4 -5 18 -50 30 -99 12 -49 28 -96 36 -104 8 -7 14 -20 14 -28 0 -16 57 -54 82 -54 9 0 18 -6 21 -12 3 -10 9 -10 28 -1 13 6 58 22 99 35 41 12 77 25 80 29 3 3 28 14 55 24 28 10 68 28 90 41 22 12 61 30 88 39 26 10 47 21 47 25 0 3 24 17 53 31 28 13 54 27 55 32 2 4 23 17 45 29 23 11 44 24 47 27 3 4 23 18 45 31 40 24 198 142 224 168 13 12 17 9 31 -24 35 -84 72 -159 81 -164 4 -3 18 -27 29 -52 11 -26 24 -50 29 -53 5 -2 19 -24 31 -47 12 -24 33 -55 45 -70 13 -15 26 -37 30 -48 3 -11 11 -20 16 -20 5 0 14 -10 18 -22 5 -13 28 -45 51 -73 22 -27 53 -65 68 -84 15 -19 43 -50 62 -70 19 -20 50 -53 67 -74 72 -84 162 -112 224 -69 60 41 319 332 319 359 0 6 7 17 16 24 16 13 90 123 114 169 7 14 16 27 20 30 4 3 17 28 31 55 13 28 27 52 30 55 4 3 17 30 30 60 13 30 29 61 36 68 7 7 16 24 19 37 l6 24 46 -36 c26 -19 49 -39 52 -43 3 -4 21 -18 41 -31 20 -13 65 -43 99 -67 35 -24 75 -49 90 -57 16 -8 34 -21 42 -29 8 -8 38 -24 66 -36 29 -12 52 -26 52 -30 0 -4 32 -20 70 -35 39 -15 70 -31 70 -34 0 -4 32 -18 70 -31 39 -13 70 -27 70 -31 0 -4 38 -17 85 -30 47 -13 85 -27 85 -31 0 -5 9 -8 20 -8 11 0 20 5 20 10 0 6 7 10 15 10 60 0 100 58 136 200 12 47 25 90 29 95 5 6 19 73 31 150 13 77 27 142 30 145 11 8 31 344 27 447 -2 60 0 89 7 83 11 -9 255 -50 297 -50 15 0 28 -6 31 -12 3 -10 78 -13 332 -13 254 0 329 3 333 13 2 6 17 12 33 12 67 0 129 64 129 131 0 47 -50 352 -60 364 -4 6 -17 48 -29 95 -12 47 -24 92 -28 100 -3 8 -7 17 -8 20 -1 3 -7 18 -13 33 -7 15 -15 40 -18 55 -4 15 -22 59 -39 97 -18 39 -36 81 -40 95 -4 14 -11 27 -15 30 -4 3 -19 30 -34 60 -34 69 -54 104 -94 167 -18 27 -32 54 -32 60 0 5 -11 20 -25 33 -14 13 -25 28 -25 34 0 6 -10 22 -23 36 -12 14 -33 41 -47 60 -87 127 -290 338 -449 467 -19 15 -44 37 -57 49 -12 12 -39 32 -61 44 -21 13 -42 28 -48 34 -14 15 -113 80 -152 100 -17 8 -33 19 -35 23 -1 5 -27 19 -57 33 -30 14 -59 30 -65 35 -6 6 -36 21 -66 34 -30 13 -57 27 -60 30 -3 4 -34 18 -70 30 -36 13 -67 27 -70 31 -3 4 -39 17 -80 29 -41 13 -80 27 -86 32 -6 5 -62 20 -125 34 -63 14 -123 30 -134 35 -27 13 -202 37 -370 51 -94 8 -199 9 -320 3 -212 -9 -277 -9 -570 -1 -121 3 -263 2 -315 -3z"/>
 </g>
<g id="layer102" fill="#23a6b3" stroke="none">
 <path d="M2490 4030 c-138 -14 -312 -39 -335 -50 -11 -5 -65 -19 -120 -30 -55 -12 -113 -28 -130 -36 -16 -7 -61 -23 -100 -35 -38 -12 -72 -24 -75 -28 -3 -4 -34 -18 -70 -30 -36 -13 -67 -27 -70 -31 -3 -3 -31 -17 -62 -30 -32 -13 -58 -27 -58 -31 0 -4 -29 -19 -65 -34 -36 -16 -65 -31 -65 -35 0 -3 -22 -17 -50 -31 -27 -13 -50 -27 -50 -31 0 -4 -13 -14 -29 -23 -16 -8 -35 -21 -43 -28 -7 -8 -31 -25 -53 -39 -22 -14 -51 -35 -65 -46 -147 -124 -197 -168 -261 -233 -165 -167 -293 -327 -378 -473 -13 -23 -27 -43 -31 -46 -4 -3 -18 -25 -30 -50 -12 -25 -26 -47 -29 -50 -4 -3 -18 -30 -30 -60 -13 -30 -27 -57 -31 -60 -3 -3 -17 -32 -31 -65 -13 -33 -27 -62 -30 -65 -4 -3 -17 -39 -30 -80 -13 -41 -28 -78 -34 -82 -5 -4 -6 -8 -1 -8 5 0 4 -6 -2 -12 -5 -7 -20 -53 -32 -103 -12 -49 -26 -95 -30 -100 -12 -14 -60 -312 -60 -367 0 -25 7 -58 15 -74 17 -34 68 -63 112 -64 17 0 33 -6 36 -12 3 -10 78 -13 332 -13 254 0 329 3 333 13 2 6 15 12 30 12 53 0 287 43 294 54 4 6 8 -56 8 -139 0 -167 16 -379 29 -410 5 -11 19 -78 31 -150 12 -71 26 -134 30 -140 4 -5 18 -50 30 -99 12 -49 28 -96 36 -104 8 -7 14 -20 14 -28 0 -16 57 -54 82 -54 9 0 18 -6 21 -12 3 -10 9 -10 28 -1 13 6 58 22 99 35 41 12 77 25 80 29 3 3 28 14 55 24 28 10 68 28 90 41 22 12 61 30 88 39 26 10 47 21 47 25 0 3 24 17 53 31 28 13 54 27 55 32 2 4 23 17 45 29 23 11 44 24 47 27 3 4 23 18 45 31 40 24 198 142 224 168 13 12 17 9 31 -24 35 -84 72 -159 81 -164 4 -3 18 -27 29 -52 11 -26 24 -50 29 -53 5 -2 19 -24 31 -47 12 -24 33 -55 45 -70 13 -15 26 -37 30 -48 3 -11 11 -20 16 -20 5 0 14 -10 18 -22 5 -13 28 -45 51 -73 22 -27 53 -65 68 -84 15 -19 43 -50 62 -70 19 -20 50 -53 67 -74 72 -84 162 -112 224 -69 60 41 319 332 319 359 0 6 7 17 16 24 16 13 90 123 114 169 7 14 16 27 20 30 4 3 17 28 31 55 13 28 27 52 30 55 4 3 17 30 30 60 13 30 29 61 36 68 7 7 16 24 19 37 l6 24 46 -36 c26 -19 49 -39 52 -43 3 -4 21 -18 41 -31 20 -13 65 -43 99 -67 35 -24 75 -49 90 -57 16 -8 34 -21 42 -29 8 -8 38 -24 66 -36 29 -12 52 -26 52 -30 0 -4 32 -20 70 -35 39 -15 70 -31 70 -34 0 -4 32 -18 70 -31 39 -13 70 -27 70 -31 0 -4 38 -17 85 -30 47 -13 85 -27 85 -31 0 -5 9 -8 20 -8 11 0 20 5 20 10 0 6 7 10 15 10 60 0 100 58 136 200 12 47 25 90 29 95 5 6 19 73 31 150 13 77 27 142 30 145 11 8 31 344 27 447 -2 60 0 89 7 83 11 -9 255 -50 297 -50 15 0 28 -6 31 -12 3 -10 78 -13 332 -13 254 0 329 3 333 13 2 6 17 12 33 12 67 0 129 64 129 131 0 47 -50 352 -60 364 -4 6 -17 48 -29 95 -12 47 -24 92 -28 100 -3 8 -7 17 -8 20 -1 3 -7 18 -13 33 -7 15 -15 40 -18 55 -4 15 -22 59 -39 97 -18 39 -36 81 -40 95 -4 14 -11 27 -15 30 -4 3 -19 30 -34 60 -34 69 -54 104 -94 167 -18 27 -32 54 -32 60 0 5 -11 20 -25 33 -14 13 -25 28 -25 34 0 6 -10 22 -23 36 -12 14 -33 41 -47 60 -87 127 -290 338 -449 467 -19 15 -44 37 -57 49 -12 12 -39 32 -61 44 -21 13 -42 28 -48 34 -14 15 -113 80 -152 100 -17 8 -33 19 -35 23 -1 5 -27 19 -57 33 -30 14 -59 30 -65 35 -6 6 -36 21 -66 34 -30 13 -57 27 -60 30 -3 4 -34 18 -70 30 -36 13 -67 27 -70 31 -3 4 -39 17 -80 29 -41 13 -80 27 -86 32 -6 5 -62 20 -125 34 -63 14 -123 30 -134 35 -27 13 -202 37 -370 51 -94 8 -199 9 -320 3 -212 -9 -277 -9 -570 -1 -121 3 -263 2 -315 -3z m1130 -547 c0 -5 21 -21 48 -36 148 -88 341 -258 488 -432 52 -60 100 -118 108 -127 9 -10 27 -34 41 -55 13 -21 32 -49 41 -63 10 -14 29 -43 44 -65 15 -22 50 -83 79 -137 251 -468 346 -990 276 -1520 -12 -91 -49 -264 -70 -325 -3 -9 -21 -5 -62 12 -65 26 -281 137 -322 164 -14 10 -55 37 -91 61 -99 66 -280 211 -288 230 -1 4 7 45 18 91 72 289 94 465 93 739 0 179 -5 244 -27 390 -24 160 -84 428 -106 468 -5 10 -18 44 -29 77 -43 133 -166 388 -242 503 -11 17 -16 32 -10 32 6 0 11 -3 11 -7z"/>
 </g>
<g id="layer103" fill="#eb4d4b" stroke="none">
 <path d="M2490 4030 c-138 -14 -312 -39 -335 -50 -11 -5 -65 -19 -120 -30 -55 -12 -113 -28 -130 -36 -16 -7 -61 -23 -100 -35 -38 -12 -72 -24 -75 -28 -3 -4 -34 -18 -70 -30 -36 -13 -67 -27 -70 -31 -3 -3 -31 -17 -62 -30 -32 -13 -58 -27 -58 -31 0 -4 -29 -19 -65 -34 -36 -16 -65 -31 -65 -35 0 -3 -22 -17 -50 -31 -27 -13 -50 -27 -50 -31 0 -4 -13 -14 -29 -23 -16 -8 -35 -21 -43 -28 -7 -8 -31 -25 -53 -39 -22 -14 -51 -35 -65 -46 -147 -124 -197 -168 -261 -233 -165 -167 -293 -327 -378 -473 -13 -23 -27 -43 -31 -46 -4 -3 -18 -25 -30 -50 -12 -25 -26 -47 -29 -50 -4 -3 -18 -30 -30 -60 -13 -30 -27 -57 -31 -60 -3 -3 -17 -32 -31 -65 -13 -33 -27 -62 -30 -65 -4 -3 -17 -39 -30 -80 -13 -41 -28 -78 -34 -82 -5 -4 -6 -8 -1 -8 5 0 4 -6 -2 -12 -5 -7 -20 -53 -32 -103 -12 -49 -26 -95 -30 -100 -12 -14 -60 -312 -60 -367 0 -25 7 -58 15 -74 17 -34 68 -63 112 -64 17 0 33 -6 36 -12 3 -10 78 -13 332 -13 254 0 329 3 333 13 2 6 15 12 30 12 53 0 287 43 294 54 4 6 8 -56 8 -139 0 -167 16 -379 29 -410 5 -11 19 -78 31 -150 12 -71 26 -134 30 -140 4 -5 18 -50 30 -99 12 -49 28 -96 36 -104 8 -7 14 -20 14 -28 0 -16 57 -54 82 -54 9 0 18 -6 21 -12 3 -10 9 -10 28 -1 13 6 58 22 99 35 41 12 77 25 80 29 3 3 28 14 55 24 28 10 68 28 90 41 22 12 61 30 88 39 26 10 47 21 47 25 0 3 24 17 53 31 28 13 54 27 55 32 2 4 23 17 45 29 23 11 44 24 47 27 3 4 23 18 45 31 40 24 198 142 224 168 13 12 17 9 31 -24 35 -84 72 -159 81 -164 4 -3 18 -27 29 -52 11 -26 24 -50 29 -53 5 -2 19 -24 31 -47 12 -24 33 -55 45 -70 13 -15 26 -37 30 -48 3 -11 11 -20 16 -20 5 0 14 -10 18 -22 5 -13 28 -45 51 -73 22 -27 53 -65 68 -84 15 -19 43 -50 62 -70 19 -20 50 -53 67 -74 72 -84 162 -112 224 -69 60 41 319 332 319 359 0 6 7 17 16 24 16 13 90 123 114 169 7 14 16 27 20 30 4 3 17 28 31 55 13 28 27 52 30 55 4 3 17 30 30 60 13 30 29 61 36 68 7 7 16 24 19 37 l6 24 46 -36 c26 -19 49 -39 52 -43 3 -4 21 -18 41 -31 20 -13 65 -43 99 -67 35 -24 75 -49 90 -57 16 -8 34 -21 42 -29 8 -8 38 -24 66 -36 29 -12 52 -26 52 -30 0 -4 32 -20 70 -35 39 -15 70 -31 70 -34 0 -4 32 -18 70 -31 39 -13 70 -27 70 -31 0 -4 38 -17 85 -30 47 -13 85 -27 85 -31 0 -5 9 -8 20 -8 11 0 20 5 20 10 0 6 7 10 15 10 60 0 100 58 136 200 12 47 25 90 29 95 5 6 19 73 31 150 13 77 27 142 30 145 11 8 31 344 27 447 -2 60 0 89 7 83 11 -9 255 -50 297 -50 15 0 28 -6 31 -12 3 -10 78 -13 332 -13 254 0 329 3 333 13 2 6 17 12 33 12 67 0 129 64 129 131 0 47 -50 352 -60 364 -4 6 -17 48 -29 95 -12 47 -24 92 -28 100 -3 8 -7 17 -8 20 -1 3 -7 18 -13 33 -7 15 -15 40 -18 55 -4 15 -22 59 -39 97 -18 39 -36 81 -40 95 -4 14 -11 27 -15 30 -4 3 -19 30 -34 60 -34 69 -54 104 -94 167 -18 27 -32 54 -32 60 0 5 -11 20 -25 33 -14 13 -25 28 -25 34 0 6 -10 22 -23 36 -12 14 -33 41 -47 60 -87 127 -290 338 -449 467 -19 15 -44 37 -57 49 -12 12 -39 32 -61 44 -21 13 -42 28 -48 34 -14 15 -113 80 -152 100 -17 8 -33 19 -35 23 -1 5 -27 19 -57 33 -30 14 -59 30 -65 35 -6 6 -36 21 -66 34 -30 13 -57 27 -60 30 -3 4 -34 18 -70 30 -36 13 -67 27 -70 31 -3 4 -39 17 -80 29 -41 13 -80 27 -86 32 -6 5 -62 20 -125 34 -63 14 -123 30 -134 35 -27 13 -202 37 -370 51 -94 8 -199 9 -320 3 -212 -9 -277 -9 -570 -1 -121 3 -263 2 -315 -3z m1427 -301 c219 -36 419 -102 649 -215 624 -304 1098 -864 1292 -1524 37 -127 65 -260 57 -269 -4 -3 -104 -5 -223 -5 -194 1 -236 5 -392 32 -96 17 -202 39 -235 50 -53 17 -60 22 -63 48 -11 101 -84 357 -154 544 -159 420 -470 847 -833 1141 -80 65 -290 209 -305 209 -6 0 -10 5 -10 10 0 12 46 8 217 -21z m-297 -246 c0 -5 21 -21 48 -36 148 -88 341 -258 488 -432 52 -60 100 -118 108 -127 9 -10 27 -34 41 -55 13 -21 32 -49 41 -63 10 -14 29 -43 44 -65 15 -22 50 -83 79 -137 251 -468 346 -990 276 -1520 -12 -91 -49 -264 -70 -325 -3 -9 -21 -5 -62 12 -65 26 -281 137 -322 164 -14 10 -55 37 -91 61 -99 66 -280 211 -288 230 -1 4 7 45 18 91 72 289 94 465 93 739 0 179 -5 244 -27 390 -24 160 -84 428 -106 468 -5 10 -18 44 -29 77 -43 133 -166 388 -242 503 -11 17 -16 32 -10 32 6 0 11 -3 11 -7z"/>
 </g>
<g id="layer104" fill="#ef942c" stroke="none">
 <path d="M2490 4030 c-138 -14 -312 -39 -335 -50 -11 -5 -65 -19 -120 -30 -55 -12 -113 -28 -130 -36 -16 -7 -61 -23 -100 -35 -38 -12 -72 -24 -75 -28 -3 -4 -34 -18 -70 -30 -36 -13 -67 -27 -70 -31 -3 -3 -31 -17 -62 -30 -32 -13 -58 -27 -58 -31 0 -4 -29 -19 -65 -34 -36 -16 -65 -31 -65 -35 0 -3 -22 -17 -50 -31 -27 -13 -50 -27 -50 -31 0 -4 -13 -14 -29 -23 -16 -8 -35 -21 -43 -28 -7 -8 -31 -25 -53 -39 -22 -14 -51 -35 -65 -46 -147 -124 -197 -168 -261 -233 -165 -167 -293 -327 -378 -473 -13 -23 -27 -43 -31 -46 -4 -3 -18 -25 -30 -50 -12 -25 -26 -47 -29 -50 -4 -3 -18 -30 -30 -60 -13 -30 -27 -57 -31 -60 -3 -3 -17 -32 -31 -65 -13 -33 -27 -62 -30 -65 -4 -3 -17 -39 -30 -80 -13 -41 -28 -78 -34 -82 -5 -4 -6 -8 -1 -8 5 0 4 -6 -2 -12 -5 -7 -20 -53 -32 -103 -12 -49 -26 -95 -30 -100 -12 -14 -60 -312 -60 -367 0 -25 7 -58 15 -74 17 -34 68 -63 112 -64 17 0 33 -6 36 -12 3 -10 78 -13 332 -13 254 0 329 3 333 13 2 6 15 12 30 12 53 0 287 43 294 54 4 6 8 -56 8 -139 0 -167 16 -379 29 -410 5 -11 19 -78 31 -150 12 -71 26 -134 30 -140 4 -5 18 -50 30 -99 12 -49 28 -96 36 -104 8 -7 14 -20 14 -28 0 -16 57 -54 82 -54 9 0 18 -6 21 -12 3 -10 9 -10 28 -1 13 6 58 22 99 35 41 12 77 25 80 29 3 3 28 14 55 24 28 10 68 28 90 41 22 12 61 30 88 39 26 10 47 21 47 25 0 3 24 17 53 31 28 13 54 27 55 32 2 4 23 17 45 29 23 11 44 24 47 27 3 4 23 18 45 31 40 24 198 142 224 168 13 12 17 9 31 -24 35 -84 72 -159 81 -164 4 -3 18 -27 29 -52 11 -26 24 -50 29 -53 5 -2 19 -24 31 -47 12 -24 33 -55 45 -70 13 -15 26 -37 30 -48 3 -11 11 -20 16 -20 5 0 14 -10 18 -22 5 -13 28 -45 51 -73 22 -27 53 -65 68 -84 15 -19 43 -50 62 -70 19 -20 50 -53 67 -74 72 -84 162 -112 224 -69 60 41 319 332 319 359 0 6 7 17 16 24 16 13 90 123 114 169 7 14 16 27 20 30 4 3 17 28 31 55 13 28 27 52 30 55 4 3 17 30 30 60 13 30 29 61 36 68 7 7 16 24 19 37 l6 24 46 -36 c26 -19 49 -39 52 -43 3 -4 21 -18 41 -31 20 -13 65 -43 99 -67 35 -24 75 -49 90 -57 16 -8 34 -21 42 -29 8 -8 38 -24 66 -36 29 -12 52 -26 52 -30 0 -4 32 -20 70 -35 39 -15 70 -31 70 -34 0 -4 32 -18 70 -31 39 -13 70 -27 70 -31 0 -4 38 -17 85 -30 47 -13 85 -27 85 -31 0 -5 9 -8 20 -8 11 0 20 5 20 10 0 6 7 10 15 10 60 0 100 58 136 200 12 47 25 90 29 95 5 6 19 73 31 150 13 77 27 142 30 145 11 8 31 344 27 447 -2 60 0 89 7 83 11 -9 255 -50 297 -50 15 0 28 -6 31 -12 3 -10 78 -13 332 -13 254 0 329 3 333 13 2 6 17 12 33 12 67 0 129 64 129 131 0 47 -50 352 -60 364 -4 6 -17 48 -29 95 -12 47 -24 92 -28 100 -3 8 -7 17 -8 20 -1 3 -7 18 -13 33 -7 15 -15 40 -18 55 -4 15 -22 59 -39 97 -18 39 -36 81 -40 95 -4 14 -11 27 -15 30 -4 3 -19 30 -34 60 -34 69 -54 104 -94 167 -18 27 -32 54 -32 60 0 5 -11 20 -25 33 -14 13 -25 28 -25 34 0 6 -10 22 -23 36 -12 14 -33 41 -47 60 -87 127 -290 338 -449 467 -19 15 -44 37 -57 49 -12 12 -39 32 -61 44 -21 13 -42 28 -48 34 -14 15 -113 80 -152 100 -17 8 -33 19 -35 23 -1 5 -27 19 -57 33 -30 14 -59 30 -65 35 -6 6 -36 21 -66 34 -30 13 -57 27 -60 30 -3 4 -34 18 -70 30 -36 13 -67 27 -70 31 -3 4 -39 17 -80 29 -41 13 -80 27 -86 32 -6 5 -62 20 -125 34 -63 14 -123 30 -134 35 -27 13 -202 37 -370 51 -94 8 -199 9 -320 3 -212 -9 -277 -9 -570 -1 -121 3 -263 2 -315 -3z m18 -279 c-1 -5 -57 -45 -123 -89 -310 -207 -603 -515 -804 -846 -57 -93 -152 -278 -181 -351 -12 -33 -29 -73 -36 -90 -40 -91 -109 -334 -139 -488 -7 -37 -14 -69 -16 -71 -35 -26 -292 -76 -504 -97 -111 -12 -389 -9 -401 4 -7 6 24 178 39 222 2 6 12 37 22 70 100 336 307 697 539 944 275 290 508 454 886 624 62 28 203 76 285 98 152 40 192 49 296 63 130 17 141 18 137 7z m1409 -22 c219 -36 419 -102 649 -215 624 -304 1098 -864 1292 -1524 37 -127 65 -260 57 -269 -4 -3 -104 -5 -223 -5 -194 1 -236 5 -392 32 -96 17 -202 39 -235 50 -53 17 -60 22 -63 48 -11 101 -84 357 -154 544 -159 420 -470 847 -833 1141 -80 65 -290 209 -305 209 -6 0 -10 5 -10 10 0 12 46 8 217 -21z m-297 -246 c0 -5 21 -21 48 -36 148 -88 341 -258 488 -432 52 -60 100 -118 108 -127 9 -10 27 -34 41 -55 13 -21 32 -49 41 -63 10 -14 29 -43 44 -65 15 -22 50 -83 79 -137 251 -468 346 -990 276 -1520 -12 -91 -49 -264 -70 -325 -3 -9 -21 -5 -62 12 -65 26 -281 137 -322 164 -14 10 -55 37 -91 61 -99 66 -280 211 -288 230 -1 4 7 45 18 91 72 289 94 465 93 739 0 179 -5 244 -27 390 -24 160 -84 428 -106 468 -5 10 -18 44 -29 77 -43 133 -166 388 -242 503 -11 17 -16 32 -10 32 6 0 11 -3 11 -7z"/>
 </g>
<g id="layer105" fill="#f9ca24" stroke="none">
 <path d="M2490 4030 c-138 -14 -312 -39 -335 -50 -11 -5 -65 -19 -120 -30 -55 -12 -113 -28 -130 -36 -16 -7 -61 -23 -100 -35 -38 -12 -72 -24 -75 -28 -3 -4 -34 -18 -70 -30 -36 -13 -67 -27 -70 -31 -3 -3 -31 -17 -62 -30 -32 -13 -58 -27 -58 -31 0 -4 -29 -19 -65 -34 -36 -16 -65 -31 -65 -35 0 -3 -22 -17 -50 -31 -27 -13 -50 -27 -50 -31 0 -4 -13 -14 -29 -23 -16 -8 -35 -21 -43 -28 -7 -8 -31 -25 -53 -39 -22 -14 -51 -35 -65 -46 -147 -124 -197 -168 -261 -233 -165 -167 -293 -327 -378 -473 -13 -23 -27 -43 -31 -46 -4 -3 -18 -25 -30 -50 -12 -25 -26 -47 -29 -50 -4 -3 -18 -30 -30 -60 -13 -30 -27 -57 -31 -60 -3 -3 -17 -32 -31 -65 -13 -33 -27 -62 -30 -65 -4 -3 -17 -39 -30 -80 -13 -41 -28 -78 -34 -82 -5 -4 -6 -8 -1 -8 5 0 4 -6 -2 -12 -5 -7 -20 -53 -32 -103 -12 -49 -26 -95 -30 -100 -12 -14 -60 -312 -60 -367 0 -25 7 -58 15 -74 17 -34 68 -63 112 -64 17 0 33 -6 36 -12 3 -10 78 -13 332 -13 254 0 329 3 333 13 2 6 15 12 30 12 53 0 287 43 294 54 4 6 8 -56 8 -139 0 -167 16 -379 29 -410 5 -11 19 -78 31 -150 12 -71 26 -134 30 -140 4 -5 18 -50 30 -99 12 -49 28 -96 36 -104 8 -7 14 -20 14 -28 0 -16 57 -54 82 -54 9 0 18 -6 21 -12 3 -10 9 -10 28 -1 13 6 58 22 99 35 41 12 77 25 80 29 3 3 28 14 55 24 28 10 68 28 90 41 22 12 61 30 88 39 26 10 47 21 47 25 0 3 24 17 53 31 28 13 54 27 55 32 2 4 23 17 45 29 23 11 44 24 47 27 3 4 23 18 45 31 40 24 198 142 224 168 13 12 17 9 31 -24 35 -84 72 -159 81 -164 4 -3 18 -27 29 -52 11 -26 24 -50 29 -53 5 -2 19 -24 31 -47 12 -24 33 -55 45 -70 13 -15 26 -37 30 -48 3 -11 11 -20 16 -20 5 0 14 -10 18 -22 5 -13 28 -45 51 -73 22 -27 53 -65 68 -84 15 -19 43 -50 62 -70 19 -20 50 -53 67 -74 72 -84 162 -112 224 -69 60 41 319 332 319 359 0 6 7 17 16 24 16 13 90 123 114 169 7 14 16 27 20 30 4 3 17 28 31 55 13 28 27 52 30 55 4 3 17 30 30 60 13 30 29 61 36 68 7 7 16 24 19 37 l6 24 46 -36 c26 -19 49 -39 52 -43 3 -4 21 -18 41 -31 20 -13 65 -43 99 -67 35 -24 75 -49 90 -57 16 -8 34 -21 42 -29 8 -8 38 -24 66 -36 29 -12 52 -26 52 -30 0 -4 32 -20 70 -35 39 -15 70 -31 70 -34 0 -4 32 -18 70 -31 39 -13 70 -27 70 -31 0 -4 38 -17 85 -30 47 -13 85 -27 85 -31 0 -5 9 -8 20 -8 11 0 20 5 20 10 0 6 7 10 15 10 60 0 100 58 136 200 12 47 25 90 29 95 5 6 19 73 31 150 13 77 27 142 30 145 11 8 31 344 27 447 -2 60 0 89 7 83 11 -9 255 -50 297 -50 15 0 28 -6 31 -12 3 -10 78 -13 332 -13 254 0 329 3 333 13 2 6 17 12 33 12 67 0 129 64 129 131 0 47 -50 352 -60 364 -4 6 -17 48 -29 95 -12 47 -24 92 -28 100 -3 8 -7 17 -8 20 -1 3 -7 18 -13 33 -7 15 -15 40 -18 55 -4 15 -22 59 -39 97 -18 39 -36 81 -40 95 -4 14 -11 27 -15 30 -4 3 -19 30 -34 60 -34 69 -54 104 -94 167 -18 27 -32 54 -32 60 0 5 -11 20 -25 33 -14 13 -25 28 -25 34 0 6 -10 22 -23 36 -12 14 -33 41 -47 60 -87 127 -290 338 -449 467 -19 15 -44 37 -57 49 -12 12 -39 32 -61 44 -21 13 -42 28 -48 34 -14 15 -113 80 -152 100 -17 8 -33 19 -35 23 -1 5 -27 19 -57 33 -30 14 -59 30 -65 35 -6 6 -36 21 -66 34 -30 13 -57 27 -60 30 -3 4 -34 18 -70 30 -36 13 -67 27 -70 31 -3 4 -39 17 -80 29 -41 13 -80 27 -86 32 -6 5 -62 20 -125 34 -63 14 -123 30 -134 35 -27 13 -202 37 -370 51 -94 8 -199 9 -320 3 -212 -9 -277 -9 -570 -1 -121 3 -263 2 -315 -3z m18 -279 c-1 -5 -57 -45 -123 -89 -310 -207 -603 -515 -804 -846 -57 -93 -152 -278 -181 -351 -12 -33 -29 -73 -36 -90 -40 -91 -109 -334 -139 -488 -7 -37 -14 -69 -16 -71 -35 -26 -292 -76 -504 -97 -111 -12 -389 -9 -401 4 -7 6 24 178 39 222 2 6 12 37 22 70 100 336 307 697 539 944 275 290 508 454 886 624 62 28 203 76 285 98 152 40 192 49 296 63 130 17 141 18 137 7z m1409 -22 c219 -36 419 -102 649 -215 624 -304 1098 -864 1292 -1524 37 -127 65 -260 57 -269 -4 -3 -104 -5 -223 -5 -194 1 -236 5 -392 32 -96 17 -202 39 -235 50 -53 17 -60 22 -63 48 -11 101 -84 357 -154 544 -159 420 -470 847 -833 1141 -80 65 -290 209 -305 209 -6 0 -10 5 -10 10 0 12 46 8 217 -21z m-863 -114 c-26 -30 -50 -55 -52 -55 -6 0 18 29 62 78 48 52 41 37 -10 -23z m-481 -212 c-192 -322 -327 -733 -363 -1102 -15 -152 -12 -467 5 -616 16 -140 68 -397 92 -453 13 -32 13 -36 -9 -59 -60 -65 -253 -208 -403 -298 -68 -42 -284 -149 -337 -168 -22 -8 -36 37 -73 233 -164 865 161 1775 840 2350 119 100 267 202 278 191 6 -6 -5 -35 -30 -78z m1047 80 c0 -5 21 -21 48 -36 148 -88 341 -258 488 -432 52 -60 100 -118 108 -127 9 -10 27 -34 41 -55 13 -21 32 -49 41 -63 10 -14 29 -43 44 -65 15 -22 50 -83 79 -137 251 -468 346 -990 276 -1520 -12 -91 -49 -264 -70 -325 -3 -9 -21 -5 -62 12 -65 26 -281 137 -322 164 -14 10 -55 37 -91 61 -99 66 -280 211 -288 230 -1 4 7 45 18 91 72 289 94 465 93 739 0 179 -5 244 -27 390 -24 160 -84 428 -106 468 -5 10 -18 44 -29 77 -43 133 -166 388 -242 503 -11 17 -16 32 -10 32 6 0 11 -3 11 -7z m-835 -253 c-9 -16 -18 -30 -21 -30 -2 0 2 14 11 30 9 17 18 30 21 30 2 0 -2 -13 -11 -30z m720 -120 c9 -16 13 -30 11 -30 -3 0 -12 14 -21 30 -9 17 -13 30 -11 30 3 0 12 -13 21 -30z m-844 -134 c-14 -36 -22 -33 -9 5 6 16 12 28 14 26 3 -2 0 -16 -5 -31z m1086 -758 c-2 -13 -4 -3 -4 22 0 25 2 35 4 23 2 -13 2 -33 0 -45z m-1280 -100 c-2 -18 -4 -4 -4 32 0 36 2 50 4 33 2 -18 2 -48 0 -65z m1290 -185 c-1 -43 -3 -8 -3 77 0 85 2 120 3 78 2 -43 2 -113 0 -155z m-1290 -95 c-2 -18 -4 -4 -4 32 0 36 2 50 4 33 2 -18 2 -48 0 -65z m1280 -70 c-2 -13 -4 -5 -4 17 -1 22 1 32 4 23 2 -10 2 -28 0 -40z m-1270 -35 c-3 -10 -5 -2 -5 17 0 19 2 27 5 18 2 -10 2 -26 0 -35z m1152 -522 c-6 -18 -13 -30 -15 -28 -2 2 1 18 7 36 6 18 13 30 15 28 2 -2 -1 -18 -7 -36z m-507 -856 c10 7 11 5 0 -6 -10 -11 -17 -8 -40 16 l-27 29 27 -23 c16 -14 32 -20 40 -16z"/>
 </g>
<g id="layer106" fill="#9ac786" stroke="none">
 <path d="M2490 4030 c-138 -14 -312 -39 -335 -50 -11 -5 -65 -19 -120 -30 -55 -12 -113 -28 -130 -36 -16 -7 -61 -23 -100 -35 -38 -12 -72 -24 -75 -28 -3 -4 -34 -18 -70 -30 -36 -13 -67 -27 -70 -31 -3 -3 -31 -17 -62 -30 -32 -13 -58 -27 -58 -31 0 -4 -29 -19 -65 -34 -36 -16 -65 -31 -65 -35 0 -3 -22 -17 -50 -31 -27 -13 -50 -27 -50 -31 0 -4 -13 -14 -29 -23 -16 -8 -35 -21 -43 -28 -7 -8 -31 -25 -53 -39 -22 -14 -51 -35 -65 -46 -147 -124 -197 -168 -261 -233 -165 -167 -293 -327 -378 -473 -13 -23 -27 -43 -31 -46 -4 -3 -18 -25 -30 -50 -12 -25 -26 -47 -29 -50 -4 -3 -18 -30 -30 -60 -13 -30 -27 -57 -31 -60 -3 -3 -17 -32 -31 -65 -13 -33 -27 -62 -30 -65 -4 -3 -17 -39 -30 -80 -13 -41 -28 -78 -34 -82 -5 -4 -6 -8 -1 -8 5 0 4 -6 -2 -12 -5 -7 -20 -53 -32 -103 -12 -49 -26 -95 -30 -100 -12 -14 -60 -312 -60 -367 0 -25 7 -58 15 -74 17 -34 68 -63 112 -64 17 0 33 -6 36 -12 3 -10 78 -13 332 -13 254 0 329 3 333 13 2 6 15 12 30 12 53 0 287 43 294 54 4 6 8 -56 8 -139 0 -167 16 -379 29 -410 5 -11 19 -78 31 -150 12 -71 26 -134 30 -140 4 -5 18 -50 30 -99 12 -49 28 -96 36 -104 8 -7 14 -20 14 -28 0 -16 57 -54 82 -54 9 0 18 -6 21 -12 3 -10 9 -10 28 -1 13 6 58 22 99 35 41 12 77 25 80 29 3 3 28 14 55 24 28 10 68 28 90 41 22 12 61 30 88 39 26 10 47 21 47 25 0 3 24 17 53 31 28 13 54 27 55 32 2 4 23 17 45 29 23 11 44 24 47 27 3 4 23 18 45 31 40 24 198 142 224 168 13 12 17 9 31 -24 35 -84 72 -159 81 -164 4 -3 18 -27 29 -52 11 -26 24 -50 29 -53 5 -2 19 -24 31 -47 12 -24 33 -55 45 -70 13 -15 26 -37 30 -48 3 -11 11 -20 16 -20 5 0 14 -10 18 -22 5 -13 28 -45 51 -73 22 -27 53 -65 68 -84 15 -19 43 -50 62 -70 19 -20 50 -53 67 -74 72 -84 162 -112 224 -69 60 41 319 332 319 359 0 6 7 17 16 24 16 13 90 123 114 169 7 14 16 27 20 30 4 3 17 28 31 55 13 28 27 52 30 55 4 3 17 30 30 60 13 30 29 61 36 68 7 7 16 24 19 37 l6 24 46 -36 c26 -19 49 -39 52 -43 3 -4 21 -18 41 -31 20 -13 65 -43 99 -67 35 -24 75 -49 90 -57 16 -8 34 -21 42 -29 8 -8 38 -24 66 -36 29 -12 52 -26 52 -30 0 -4 32 -20 70 -35 39 -15 70 -31 70 -34 0 -4 32 -18 70 -31 39 -13 70 -27 70 -31 0 -4 38 -17 85 -30 47 -13 85 -27 85 -31 0 -5 9 -8 20 -8 11 0 20 5 20 10 0 6 7 10 15 10 60 0 100 58 136 200 12 47 25 90 29 95 5 6 19 73 31 150 13 77 27 142 30 145 11 8 31 344 27 447 -2 60 0 89 7 83 11 -9 255 -50 297 -50 15 0 28 -6 31 -12 3 -10 78 -13 332 -13 254 0 329 3 333 13 2 6 17 12 33 12 67 0 129 64 129 131 0 47 -50 352 -60 364 -4 6 -17 48 -29 95 -12 47 -24 92 -28 100 -3 8 -7 17 -8 20 -1 3 -7 18 -13 33 -7 15 -15 40 -18 55 -4 15 -22 59 -39 97 -18 39 -36 81 -40 95 -4 14 -11 27 -15 30 -4 3 -19 30 -34 60 -34 69 -54 104 -94 167 -18 27 -32 54 -32 60 0 5 -11 20 -25 33 -14 13 -25 28 -25 34 0 6 -10 22 -23 36 -12 14 -33 41 -47 60 -87 127 -290 338 -449 467 -19 15 -44 37 -57 49 -12 12 -39 32 -61 44 -21 13 -42 28 -48 34 -14 15 -113 80 -152 100 -17 8 -33 19 -35 23 -1 5 -27 19 -57 33 -30 14 -59 30 -65 35 -6 6 -36 21 -66 34 -30 13 -57 27 -60 30 -3 4 -34 18 -70 30 -36 13 -67 27 -70 31 -3 4 -39 17 -80 29 -41 13 -80 27 -86 32 -6 5 -62 20 -125 34 -63 14 -123 30 -134 35 -27 13 -202 37 -370 51 -94 8 -199 9 -320 3 -212 -9 -277 -9 -570 -1 -121 3 -263 2 -315 -3z m18 -279 c-1 -5 -57 -45 -123 -89 -310 -207 -603 -515 -804 -846 -57 -93 -152 -278 -181 -351 -12 -33 -29 -73 -36 -90 -40 -91 -109 -334 -139 -488 -7 -37 -14 -69 -16 -71 -35 -26 -292 -76 -504 -97 -111 -12 -389 -9 -401 4 -7 6 24 178 39 222 2 6 12 37 22 70 100 336 307 697 539 944 275 290 508 454 886 624 62 28 203 76 285 98 152 40 192 49 296 63 130 17 141 18 137 7z m1409 -22 c219 -36 419 -102 649 -215 624 -304 1098 -864 1292 -1524 37 -127 65 -260 57 -269 -4 -3 -104 -5 -223 -5 -194 1 -236 5 -392 32 -96 17 -202 39 -235 50 -53 17 -60 22 -63 48 -11 101 -84 357 -154 544 -159 420 -470 847 -833 1141 -80 65 -290 209 -305 209 -6 0 -10 5 -10 10 0 12 46 8 217 -21z m-755 -101 c236 -281 406 -599 506 -953 72 -252 107 -616 83 -858 -48 -487 -193 -883 -461 -1257 -66 -92 -165 -212 -181 -218 -4 -2 -42 39 -84 90 -237 286 -411 639 -500 1008 -47 195 -60 321 -60 575 1 226 3 265 28 403 14 85 41 204 58 265 30 106 98 297 118 335 6 9 31 60 57 112 55 113 98 185 178 300 96 137 189 250 207 250 4 0 27 -24 51 -52z m-552 -150 c0 -7 -16 -40 -36 -73 -188 -311 -328 -736 -364 -1104 -15 -152 -12 -467 5 -616 16 -140 68 -397 92 -453 13 -32 13 -36 -9 -59 -60 -65 -253 -208 -403 -298 -68 -42 -284 -149 -337 -168 -22 -8 -36 37 -73 233 -122 640 25 1321 403 1870 156 226 381 452 611 614 98 68 111 75 111 54z m1010 5 c0 -5 21 -21 48 -36 148 -88 341 -258 488 -432 52 -60 100 -118 108 -127 9 -10 27 -34 41 -55 13 -21 32 -49 41 -63 10 -14 29 -43 44 -65 15 -22 50 -83 79 -137 251 -468 346 -990 276 -1520 -12 -91 -49 -264 -70 -325 -3 -9 -21 -5 -62 12 -65 26 -281 137 -322 164 -14 10 -55 37 -91 61 -99 66 -280 211 -288 230 -1 4 7 45 18 91 72 289 94 465 93 739 0 179 -5 244 -27 390 -24 160 -84 428 -106 468 -5 10 -18 44 -29 77 -43 133 -166 388 -242 503 -11 17 -16 32 -10 32 6 0 11 -3 11 -7z"/>
 </g>
<g id="layer107" fill="#caa4a4" stroke="none">
 <path d="M2490 4030 c-138 -14 -312 -39 -335 -50 -11 -5 -65 -19 -120 -30 -55 -12 -113 -28 -130 -36 -16 -7 -61 -23 -100 -35 -38 -12 -72 -24 -75 -28 -3 -4 -34 -18 -70 -30 -36 -13 -67 -27 -70 -31 -3 -3 -31 -17 -62 -30 -32 -13 -58 -27 -58 -31 0 -4 -29 -19 -65 -34 -36 -16 -65 -31 -65 -35 0 -3 -22 -17 -50 -31 -27 -13 -50 -27 -50 -31 0 -4 -13 -14 -29 -23 -16 -8 -35 -21 -43 -28 -7 -8 -31 -25 -53 -39 -22 -14 -51 -35 -65 -46 -147 -124 -197 -168 -261 -233 -165 -167 -293 -327 -378 -473 -13 -23 -27 -43 -31 -46 -4 -3 -18 -25 -30 -50 -12 -25 -26 -47 -29 -50 -4 -3 -18 -30 -30 -60 -13 -30 -27 -57 -31 -60 -3 -3 -17 -32 -31 -65 -13 -33 -27 -62 -30 -65 -4 -3 -17 -39 -30 -80 -13 -41 -28 -78 -34 -82 -5 -4 -6 -8 -1 -8 5 0 4 -6 -2 -12 -5 -7 -20 -53 -32 -103 -12 -49 -26 -95 -30 -100 -12 -14 -60 -312 -60 -367 0 -25 7 -58 15 -74 17 -34 68 -63 112 -64 17 0 33 -6 36 -12 3 -10 78 -13 332 -13 254 0 329 3 333 13 2 6 15 12 30 12 53 0 287 43 294 54 4 6 8 -56 8 -139 0 -167 16 -379 29 -410 5 -11 19 -78 31 -150 12 -71 26 -134 30 -140 4 -5 18 -50 30 -99 12 -49 28 -96 36 -104 8 -7 14 -20 14 -28 0 -16 57 -54 82 -54 9 0 18 -6 21 -12 3 -10 9 -10 28 -1 13 6 58 22 99 35 41 12 77 25 80 29 3 3 28 14 55 24 28 10 68 28 90 41 22 12 61 30 88 39 26 10 47 21 47 25 0 3 24 17 53 31 28 13 54 27 55 32 2 4 23 17 45 29 23 11 44 24 47 27 3 4 23 18 45 31 40 24 198 142 224 168 13 12 17 9 31 -24 35 -84 72 -159 81 -164 4 -3 18 -27 29 -52 11 -26 24 -50 29 -53 5 -2 19 -24 31 -47 12 -24 33 -55 45 -70 13 -15 26 -37 30 -48 3 -11 11 -20 16 -20 5 0 14 -10 18 -22 5 -13 28 -45 51 -73 22 -27 53 -65 68 -84 15 -19 43 -50 62 -70 19 -20 50 -53 67 -74 72 -84 162 -112 224 -69 60 41 319 332 319 359 0 6 7 17 16 24 16 13 90 123 114 169 7 14 16 27 20 30 4 3 17 28 31 55 13 28 27 52 30 55 4 3 17 30 30 60 13 30 29 61 36 68 7 7 16 24 19 37 l6 24 46 -36 c26 -19 49 -39 52 -43 3 -4 21 -18 41 -31 20 -13 65 -43 99 -67 35 -24 75 -49 90 -57 16 -8 34 -21 42 -29 8 -8 38 -24 66 -36 29 -12 52 -26 52 -30 0 -4 32 -20 70 -35 39 -15 70 -31 70 -34 0 -4 32 -18 70 -31 39 -13 70 -27 70 -31 0 -4 38 -17 85 -30 47 -13 85 -27 85 -31 0 -5 9 -8 20 -8 11 0 20 5 20 10 0 6 7 10 15 10 60 0 100 58 136 200 12 47 25 90 29 95 5 6 19 73 31 150 13 77 27 142 30 145 11 8 31 344 27 447 -2 60 0 89 7 83 11 -9 255 -50 297 -50 15 0 28 -6 31 -12 3 -10 78 -13 332 -13 254 0 329 3 333 13 2 6 17 12 33 12 67 0 129 64 129 131 0 47 -50 352 -60 364 -4 6 -17 48 -29 95 -12 47 -24 92 -28 100 -3 8 -7 17 -8 20 -1 3 -7 18 -13 33 -7 15 -15 40 -18 55 -4 15 -22 59 -39 97 -18 39 -36 81 -40 95 -4 14 -11 27 -15 30 -4 3 -19 30 -34 60 -34 69 -54 104 -94 167 -18 27 -32 54 -32 60 0 5 -11 20 -25 33 -14 13 -25 28 -25 34 0 6 -10 22 -23 36 -12 14 -33 41 -47 60 -87 127 -290 338 -449 467 -19 15 -44 37 -57 49 -12 12 -39 32 -61 44 -21 13 -42 28 -48 34 -14 15 -113 80 -152 100 -17 8 -33 19 -35 23 -1 5 -27 19 -57 33 -30 14 -59 30 -65 35 -6 6 -36 21 -66 34 -30 13 -57 27 -60 30 -3 4 -34 18 -70 30 -36 13 -67 27 -70 31 -3 4 -39 17 -80 29 -41 13 -80 27 -86 32 -6 5 -62 20 -125 34 -63 14 -123 30 -134 35 -27 13 -202 37 -370 51 -94 8 -199 9 -320 3 -212 -9 -277 -9 -570 -1 -121 3 -263 2 -315 -3z m18 -279 c-1 -5 -57 -45 -123 -89 -310 -207 -603 -515 -804 -846 -57 -93 -152 -278 -181 -351 -12 -33 -29 -73 -36 -90 -40 -91 -109 -334 -139 -488 -7 -37 -14 -69 -16 -71 -35 -26 -292 -76 -504 -97 -111 -12 -389 -9 -401 4 -7 6 24 178 39 222 2 6 12 37 22 70 100 336 307 697 539 944 275 290 508 454 886 624 62 28 203 76 285 98 152 40 192 49 296 63 130 17 141 18 137 7z m1409 -22 c219 -36 419 -102 649 -215 624 -304 1098 -864 1292 -1524 37 -127 65 -260 57 -269 -4 -3 -104 -5 -223 -5 -194 1 -236 5 -392 32 -96 17 -202 39 -235 50 -53 17 -60 22 -63 48 -11 101 -84 357 -154 544 -159 420 -470 847 -833 1141 -80 65 -290 209 -305 209 -6 0 -10 5 -10 10 0 12 46 8 217 -21z m-755 -101 c236 -281 406 -599 506 -953 72 -252 107 -616 83 -858 -48 -487 -193 -883 -461 -1257 -66 -92 -165 -212 -181 -218 -4 -2 -42 39 -84 90 -237 286 -411 639 -500 1008 -47 195 -60 321 -60 575 1 226 3 265 28 403 14 85 41 204 58 265 30 106 98 297 118 335 6 9 31 60 57 112 55 113 98 185 178 300 96 137 189 250 207 250 4 0 27 -24 51 -52z m498 -164 c484 -323 837 -798 1007 -1359 33 -107 40 -137 75 -315 20 -103 23 -145 23 -400 0 -300 -1 -308 -61 -587 -25 -116 -14 -115 -209 -19 -211 104 -379 216 -564 373 l-35 30 22 74 c27 92 67 285 84 404 17 118 17 568 0 695 -49 370 -183 755 -370 1064 -23 37 -42 70 -42 72 0 10 20 1 70 -32z m-1050 14 c0 -7 -16 -40 -36 -73 -188 -311 -328 -736 -364 -1104 -15 -152 -12 -467 5 -616 16 -140 68 -397 92 -453 13 -32 13 -36 -9 -59 -60 -65 -253 -208 -403 -298 -68 -42 -284 -149 -337 -168 -22 -8 -36 37 -73 233 -122 640 25 1321 403 1870 156 226 381 452 611 614 98 68 111 75 111 54z"/>
 </g>
<g id="layer108" fill="#ffffff" stroke="none">
 <path d="M2490 4030 c-138 -14 -312 -39 -335 -50 -11 -5 -65 -19 -120 -30 -55 -12 -113 -28 -130 -36 -16 -7 -61 -23 -100 -35 -38 -12 -72 -24 -75 -28 -3 -4 -34 -18 -70 -30 -36 -13 -67 -27 -70 -31 -3 -3 -31 -17 -62 -30 -32 -13 -58 -27 -58 -31 0 -4 -29 -19 -65 -34 -36 -16 -65 -31 -65 -35 0 -3 -22 -17 -50 -31 -27 -13 -50 -27 -50 -31 0 -4 -13 -14 -29 -23 -16 -8 -35 -21 -43 -28 -7 -8 -31 -25 -53 -39 -22 -14 -51 -35 -65 -46 -147 -124 -197 -168 -261 -233 -165 -167 -293 -327 -378 -473 -13 -23 -27 -43 -31 -46 -4 -3 -18 -25 -30 -50 -12 -25 -26 -47 -29 -50 -4 -3 -18 -30 -30 -60 -13 -30 -27 -57 -31 -60 -3 -3 -17 -32 -31 -65 -13 -33 -27 -62 -30 -65 -4 -3 -17 -39 -30 -80 -13 -41 -28 -78 -34 -82 -5 -4 -6 -8 -1 -8 5 0 4 -6 -2 -12 -5 -7 -20 -53 -32 -103 -12 -49 -26 -95 -30 -100 -12 -14 -60 -312 -60 -367 0 -25 7 -58 15 -74 17 -34 68 -63 112 -64 17 0 33 -6 36 -12 3 -10 78 -13 332 -13 254 0 329 3 333 13 2 6 15 12 30 12 53 0 287 43 294 54 4 6 8 -56 8 -139 0 -167 16 -379 29 -410 5 -11 19 -78 31 -150 12 -71 26 -134 30 -140 4 -5 18 -50 30 -99 12 -49 28 -96 36 -104 8 -7 14 -20 14 -28 0 -16 57 -54 82 -54 9 0 18 -6 21 -12 3 -10 9 -10 28 -1 13 6 58 22 99 35 41 12 77 25 80 29 3 3 28 14 55 24 28 10 68 28 90 41 22 12 61 30 88 39 26 10 47 21 47 25 0 3 24 17 53 31 28 13 54 27 55 32 2 4 23 17 45 29 23 11 44 24 47 27 3 4 23 18 45 31 40 24 198 142 224 168 13 12 17 9 31 -24 35 -84 72 -159 81 -164 4 -3 18 -27 29 -52 11 -26 24 -50 29 -53 5 -2 19 -24 31 -47 12 -24 33 -55 45 -70 13 -15 26 -37 30 -48 3 -11 11 -20 16 -20 5 0 14 -10 18 -22 5 -13 28 -45 51 -73 22 -27 53 -65 68 -84 15 -19 43 -50 62 -70 19 -20 50 -53 67 -74 72 -84 162 -112 224 -69 60 41 319 332 319 359 0 6 7 17 16 24 16 13 90 123 114 169 7 14 16 27 20 30 4 3 17 28 31 55 13 28 27 52 30 55 4 3 17 30 30 60 13 30 29 61 36 68 7 7 16 24 19 37 l6 24 46 -36 c26 -19 49 -39 52 -43 3 -4 21 -18 41 -31 20 -13 65 -43 99 -67 35 -24 75 -49 90 -57 16 -8 34 -21 42 -29 8 -8 38 -24 66 -36 29 -12 52 -26 52 -30 0 -4 32 -20 70 -35 39 -15 70 -31 70 -34 0 -4 32 -18 70 -31 39 -13 70 -27 70 -31 0 -4 38 -17 85 -30 47 -13 85 -27 85 -31 0 -5 9 -8 20 -8 11 0 20 5 20 10 0 6 7 10 15 10 60 0 100 58 136 200 12 47 25 90 29 95 5 6 19 73 31 150 13 77 27 142 30 145 11 8 31 344 27 447 -2 60 0 89 7 83 11 -9 255 -50 297 -50 15 0 28 -6 31 -12 3 -10 78 -13 332 -13 254 0 329 3 333 13 2 6 17 12 33 12 67 0 129 64 129 131 0 47 -50 352 -60 364 -4 6 -17 48 -29 95 -12 47 -24 92 -28 100 -3 8 -7 17 -8 20 -1 3 -7 18 -13 33 -7 15 -15 40 -18 55 -4 15 -22 59 -39 97 -18 39 -36 81 -40 95 -4 14 -11 27 -15 30 -4 3 -19 30 -34 60 -34 69 -54 104 -94 167 -18 27 -32 54 -32 60 0 5 -11 20 -25 33 -14 13 -25 28 -25 34 0 6 -10 22 -23 36 -12 14 -33 41 -47 60 -87 127 -290 338 -449 467 -19 15 -44 37 -57 49 -12 12 -39 32 -61 44 -21 13 -42 28 -48 34 -14 15 -113 80 -152 100 -17 8 -33 19 -35 23 -1 5 -27 19 -57 33 -30 14 -59 30 -65 35 -6 6 -36 21 -66 34 -30 13 -57 27 -60 30 -3 4 -34 18 -70 30 -36 13 -67 27 -70 31 -3 4 -39 17 -80 29 -41 13 -80 27 -86 32 -6 5 -62 20 -125 34 -63 14 -123 30 -134 35 -27 13 -202 37 -370 51 -94 8 -199 9 -320 3 -212 -9 -277 -9 -570 -1 -121 3 -263 2 -315 -3z m25 -277 c0 -10 -138 -113 -151 -113 -10 0 -164 -122 -254 -201 -354 -311 -638 -744 -783 -1194 -57 -175 -64 -204 -87 -320 -11 -60 -24 -113 -28 -116 -4 -3 -36 -14 -72 -23 -214 -57 -545 -93 -732 -81 -135 8 -128 1 -104 110 71 313 189 593 358 847 163 246 423 511 658 671 133 90 151 101 300 178 210 109 495 202 730 238 41 6 86 13 100 15 40 6 65 2 65 -11z m1385 -18 c511 -89 962 -325 1335 -699 296 -296 484 -608 619 -1022 31 -97 70 -283 61 -292 -12 -12 -273 -14 -406 -3 -135 11 -418 62 -474 85 -29 12 -31 18 -58 145 -47 222 -118 431 -216 634 -213 443 -549 830 -944 1087 -64 41 -116 78 -116 83 -2 12 50 8 199 -18z m-637 -228 c230 -313 371 -625 446 -987 38 -186 51 -313 51 -510 0 -197 -13 -323 -50 -502 -86 -406 -237 -726 -496 -1053 -112 -141 -99 -137 -170 -52 -81 96 -161 206 -214 292 -61 100 -165 301 -186 360 -9 28 -21 55 -24 60 -16 22 -83 256 -110 379 -39 180 -52 310 -52 521 0 209 12 326 53 520 81 384 265 764 516 1063 l78 93 52 -55 c29 -31 76 -89 106 -129z m-643 -26 c0 -5 -16 -35 -36 -67 -62 -103 -169 -327 -212 -445 -61 -166 -99 -310 -134 -508 -31 -168 -32 -188 -32 -446 0 -258 1 -278 31 -450 17 -99 43 -220 57 -269 14 -48 26 -94 26 -101 0 -21 -181 -168 -313 -255 -115 -76 -396 -223 -447 -235 -26 -6 -26 -5 -57 127 -49 207 -58 297 -57 568 0 268 10 357 65 580 32 130 75 262 128 390 32 75 140 284 171 330 10 14 37 54 60 90 120 181 280 357 460 508 182 152 290 220 290 183z m1068 -33 c375 -251 716 -668 893 -1088 80 -193 151 -460 180 -680 16 -121 16 -456 1 -580 -13 -96 -54 -307 -74 -368 -12 -39 -8 -40 -163 33 -194 91 -363 198 -528 335 -53 44 -97 87 -97 96 0 8 11 54 25 102 94 332 121 804 64 1122 -45 247 -82 390 -143 555 -43 116 -156 350 -215 447 -23 37 -41 69 -41 72 0 15 27 2 98 -46z"/>
 </g>

</svg>