<?xml version="1.0" standalone="no"?><!-- Generator: Gravit.io --><svg xmlns="http://www.w3.org/2000/svg" xmlns:xlink="http://www.w3.org/1999/xlink" style="isolation:isolate" viewBox="0 0 560 315" width="560" height="315"><defs><clipPath id="_clipPath_2ROXwJHrNTxmqvMerxY61vqifmT778xH"><rect width="560" height="315"/></clipPath></defs><g clip-path="url(#_clipPath_2ROXwJHrNTxmqvMerxY61vqifmT778xH)"><g/><g><path d=" M 290.039 257.253 C 289.924 257.253 289.807 257.238 289.69 257.208 C 288.953 257.016 288.512 256.263 288.704 255.525 C 297.109 223.293 296.797 190.887 287.824 164.274 C 278.919 137.865 262.541 120.329 241.705 114.896 C 240.968 114.703 240.526 113.95 240.718 113.213 C 240.911 112.476 241.664 112.032 242.401 112.227 C 264.166 117.902 281.226 136.073 290.437 163.393 C 299.581 190.508 299.913 223.476 291.373 256.222 C 291.211 256.842 290.652 257.253 290.039 257.253 Z " fill="rgb(0,20,7)"/><path d=" M 295.677 198.479 C 295.561 198.479 295.445 198.464 295.328 198.434 C 294.591 198.242 294.149 197.489 294.341 196.751 C 297.934 182.977 312.06 174.692 325.834 178.288 C 326.571 178.48 327.012 179.233 326.821 179.97 C 326.628 180.708 325.873 181.147 325.138 180.957 C 319.174 179.402 312.966 180.259 307.656 183.372 C 302.346 186.485 298.566 191.484 297.01 197.449 C 296.848 198.069 296.289 198.479 295.677 198.479 Z " fill="rgb(0,20,7)"/><path d=" M 296.144 214.935 C 295.382 214.935 294.765 214.318 294.765 213.556 C 294.765 197.109 281.384 183.728 264.936 183.728 C 264.175 183.728 263.557 183.11 263.557 182.349 C 263.557 181.587 264.175 180.969 264.936 180.969 C 282.905 180.969 297.523 195.588 297.523 213.556 C 297.523 214.318 296.906 214.935 296.144 214.935 Z " fill="rgb(0,20,7)"/><path d=" M 316.344 179.048 C 317.917 181.696 323.293 189.825 330.412 190.634 C 337.499 191.445 351.264 185.894 356.543 183.617 C 351.909 180.215 339.735 171.72 332.652 170.916 C 325.516 170.103 318.469 176.818 316.344 179.048 Z  M 331.852 193.467 C 331.24 193.467 330.654 193.438 330.1 193.374 C 320.162 192.245 313.696 180.013 313.425 179.492 C 313.167 178.995 313.235 178.39 313.599 177.962 C 313.98 177.516 323.021 167.033 332.964 168.176 C 342.563 169.267 359.388 182.283 360.099 182.837 C 360.479 183.131 360.677 183.604 360.623 184.08 C 360.569 184.558 360.271 184.973 359.834 185.176 C 359.063 185.534 341.865 193.467 331.852 193.467 Z " fill="rgb(0,20,7)"/><path d=" M 203.213 95.579 C 207.484 101.624 221.201 120.252 231.107 124.796 C 241.12 129.389 254.626 122.639 258.069 120.744 C 257.255 116.898 253.55 102.249 243.554 97.663 C 233.649 93.119 210.581 94.872 203.213 95.579 Z  M 238.957 129.135 C 235.905 129.135 232.832 128.622 229.957 127.304 C 217.443 121.563 200.326 96.291 199.604 95.219 C 199.335 94.82 199.293 94.309 199.494 93.872 C 199.694 93.436 200.108 93.135 200.585 93.079 C 201.87 92.926 232.19 89.416 244.704 95.156 C 257.53 101.039 260.838 120.406 260.973 121.229 C 261.064 121.783 260.81 122.336 260.331 122.629 C 259.779 122.966 249.518 129.135 238.957 129.135 Z " fill="rgb(0,20,7)"/><path d=" M 221.807 180.969 C 227.598 184.961 245.244 196.6 255.207 197.388 C 265.253 198.156 274.78 188.171 277.247 185.356 C 275.253 182.186 267.421 170.801 257.373 170.006 C 247.416 169.213 228.153 177.937 221.807 180.969 Z  M 256.363 200.192 C 255.907 200.192 255.45 200.174 254.99 200.137 C 242.239 199.129 219.263 182.575 218.291 181.872 C 217.902 181.59 217.687 181.125 217.725 180.646 C 217.763 180.167 218.048 179.742 218.476 179.525 C 219.547 178.983 244.843 166.247 257.591 167.257 C 270.682 168.292 279.763 184.138 280.143 184.812 C 280.418 185.301 280.37 185.907 280.021 186.348 C 279.557 186.932 268.871 200.192 256.363 200.192 Z " fill="rgb(0,20,7)"/><path d=" M 325.486 74.931 C 317.067 74.931 310.217 81.782 310.217 90.201 C 310.217 98.619 317.067 105.47 325.486 105.47 C 333.905 105.47 340.755 98.619 340.755 90.201 C 340.755 81.782 333.905 74.931 325.486 74.931 Z  M 325.486 108.228 C 315.546 108.228 307.459 100.141 307.459 90.201 C 307.459 80.26 315.546 72.173 325.486 72.173 C 335.426 72.173 343.513 80.26 343.513 90.201 C 343.513 100.141 335.426 108.228 325.486 108.228 Z " fill="rgb(255,193,7)"/><path d=" M 325.486 69.747 C 324.724 69.747 324.107 69.13 324.107 68.368 L 324.107 59.122 C 324.107 58.359 324.724 57.743 325.486 57.743 C 326.248 57.743 326.865 58.359 326.865 59.122 L 326.865 68.368 C 326.865 69.13 326.248 69.747 325.486 69.747 Z " fill="rgb(255,193,7)"/><path d=" M 314.571 72.672 C 314.094 72.672 313.631 72.425 313.376 71.983 L 308.752 63.975 C 308.371 63.315 308.597 62.471 309.257 62.091 C 309.918 61.71 310.76 61.936 311.14 62.595 L 315.764 70.604 C 316.145 71.263 315.919 72.107 315.259 72.487 C 315.042 72.612 314.805 72.672 314.571 72.672 Z " fill="rgb(255,193,7)"/><path d=" M 306.577 80.664 C 306.343 80.664 306.106 80.604 305.889 80.478 L 297.881 75.855 C 297.222 75.476 296.995 74.632 297.377 73.971 C 297.757 73.313 298.6 73.087 299.26 73.468 L 307.268 78.091 C 307.928 78.471 308.154 79.314 307.773 79.975 C 307.517 80.417 307.054 80.664 306.577 80.664 Z " fill="rgb(255,193,7)"/><path d=" M 303.654 91.58 L 294.406 91.58 C 293.644 91.58 293.027 90.963 293.027 90.201 C 293.027 89.439 293.644 88.822 294.406 88.822 L 303.654 88.822 C 304.415 88.822 305.032 89.439 305.032 90.201 C 305.032 90.963 304.415 91.58 303.654 91.58 Z " fill="rgb(255,193,7)"/><path d=" M 298.572 107.12 C 298.095 107.12 297.632 106.872 297.377 106.431 C 296.995 105.77 297.221 104.928 297.881 104.547 L 305.889 99.924 C 306.549 99.543 307.392 99.768 307.773 100.428 C 308.154 101.088 307.927 101.931 307.268 102.311 L 299.26 106.934 C 299.043 107.06 298.806 107.12 298.572 107.12 Z " fill="rgb(255,193,7)"/><path d=" M 309.945 118.495 C 309.711 118.495 309.474 118.435 309.257 118.31 C 308.597 117.93 308.371 117.086 308.752 116.427 L 313.376 108.419 C 313.757 107.759 314.599 107.533 315.259 107.914 C 315.919 108.294 316.145 109.139 315.764 109.798 L 311.14 117.806 C 310.885 118.247 310.422 118.495 309.945 118.495 Z " fill="rgb(255,193,7)"/><path d=" M 325.486 122.659 C 324.724 122.659 324.107 122.042 324.107 121.28 L 324.107 112.033 C 324.107 111.271 324.724 110.654 325.486 110.654 C 326.248 110.654 326.865 111.271 326.865 112.033 L 326.865 121.28 C 326.865 122.042 326.248 122.659 325.486 122.659 Z " fill="rgb(255,193,7)"/><path d=" M 341.027 118.495 C 340.55 118.495 340.087 118.247 339.832 117.806 L 335.209 109.798 C 334.827 109.139 335.053 108.294 335.713 107.914 C 336.374 107.533 337.216 107.759 337.597 108.419 L 342.22 116.427 C 342.601 117.086 342.375 117.93 341.715 118.31 C 341.498 118.435 341.261 118.495 341.027 118.495 Z " fill="rgb(255,193,7)"/><path d=" M 352.4 107.12 C 352.166 107.12 351.929 107.06 351.712 106.934 L 343.704 102.311 C 343.044 101.931 342.818 101.088 343.199 100.428 C 343.579 99.768 344.423 99.543 345.083 99.924 L 353.091 104.547 C 353.751 104.928 353.977 105.77 353.595 106.431 C 353.34 106.872 352.877 107.12 352.4 107.12 Z " fill="rgb(255,193,7)"/><path d=" M 356.565 91.58 L 347.318 91.58 C 346.557 91.58 345.94 90.963 345.94 90.201 C 345.94 89.439 346.557 88.822 347.318 88.822 L 356.565 88.822 C 357.327 88.822 357.944 89.439 357.944 90.201 C 357.944 90.963 357.327 91.58 356.565 91.58 Z " fill="rgb(255,193,7)"/><path d=" M 344.395 80.664 C 343.918 80.664 343.455 80.417 343.199 79.975 C 342.818 79.314 343.044 78.471 343.704 78.091 L 351.712 73.468 C 352.373 73.087 353.215 73.313 353.596 73.971 C 353.977 74.632 353.751 75.476 353.091 75.855 L 345.083 80.478 C 344.866 80.604 344.629 80.664 344.395 80.664 Z " fill="rgb(255,193,7)"/><path d=" M 336.401 72.672 C 336.167 72.672 335.93 72.612 335.713 72.487 C 335.053 72.107 334.827 71.263 335.208 70.604 L 339.831 62.595 C 340.212 61.936 341.055 61.71 341.715 62.091 C 342.374 62.471 342.601 63.315 342.219 63.975 L 337.596 71.983 C 337.341 72.425 336.878 72.672 336.401 72.672 Z " fill="rgb(255,193,7)"/><path d=" M 354.973 257.257 L 225.104 257.257 C 224.342 257.257 223.724 256.64 223.724 255.878 C 223.724 255.117 224.342 254.499 225.104 254.499 L 354.973 254.499 C 355.735 254.499 356.352 255.117 356.352 255.878 C 356.352 256.64 355.735 257.257 354.973 257.257 Z " fill="rgb(0,20,7)"/><path d=" M 241.523 254.499 L 275.603 254.499 C 274.9 245.709 267.525 238.772 258.563 238.772 C 249.6 238.772 242.227 245.709 241.523 254.499 Z  M 277.038 257.257 L 240.088 257.257 C 239.327 257.257 238.71 256.64 238.71 255.878 C 238.71 244.925 247.615 236.015 258.563 236.015 C 269.51 236.015 278.417 244.925 278.417 255.878 C 278.417 256.64 277.799 257.257 277.038 257.257 Z " fill="rgb(0,20,7)"/><path d=" M 322.539 254.495 L 328.432 254.495 L 328.432 245.845 L 322.539 250.191 L 322.539 254.495 Z  M 329.811 257.254 L 321.16 257.254 C 320.398 257.254 319.781 256.635 319.781 255.875 L 319.781 249.494 C 319.781 249.057 319.989 248.644 320.342 248.385 L 328.993 242.004 C 329.412 241.693 329.968 241.647 330.433 241.883 C 330.897 242.117 331.19 242.594 331.19 243.114 L 331.19 255.875 C 331.19 256.635 330.573 257.254 329.811 257.254 Z " fill="rgb(0,20,7)"/><path d=" M 290.039 257.253 C 289.924 257.253 289.807 257.238 289.69 257.208 C 288.953 257.016 288.512 256.263 288.704 255.525 C 297.109 223.293 296.797 190.887 287.824 164.274 C 278.919 137.865 262.541 120.329 241.705 114.896 C 240.968 114.703 240.526 113.95 240.718 113.213 C 240.911 112.476 241.664 112.032 242.401 112.227 C 264.166 117.902 281.226 136.073 290.437 163.393 C 299.581 190.508 299.913 223.476 291.373 256.222 C 291.211 256.842 290.652 257.253 290.039 257.253 Z " fill="rgb(76,175,80)"/><path d=" M 295.677 198.479 C 295.561 198.479 295.445 198.464 295.328 198.434 C 294.591 198.242 294.149 197.489 294.341 196.751 C 297.934 182.977 312.06 174.692 325.834 178.288 C 326.571 178.48 327.012 179.233 326.821 179.97 C 326.628 180.708 325.873 181.147 325.138 180.957 C 319.174 179.402 312.966 180.259 307.656 183.372 C 302.346 186.485 298.566 191.484 297.01 197.449 C 296.848 198.069 296.289 198.479 295.677 198.479 Z " fill="rgb(76,175,80)"/><path d=" M 296.144 214.935 C 295.382 214.935 294.765 214.318 294.765 213.556 C 294.765 197.109 281.384 183.728 264.936 183.728 C 264.175 183.728 263.557 183.11 263.557 182.349 C 263.557 181.587 264.175 180.969 264.936 180.969 C 282.905 180.969 297.523 195.588 297.523 213.556 C 297.523 214.318 296.906 214.935 296.144 214.935 Z " fill="rgb(76,175,80)"/><path d=" M 316.344 179.048 C 317.917 181.696 323.293 189.825 330.412 190.634 C 337.499 191.445 351.264 185.894 356.543 183.617 C 351.909 180.215 339.735 171.72 332.652 170.916 C 325.516 170.103 318.469 176.818 316.344 179.048 Z  M 331.852 193.467 C 331.24 193.467 330.654 193.438 330.1 193.374 C 320.162 192.245 313.696 180.013 313.425 179.492 C 313.167 178.995 313.235 178.39 313.599 177.962 C 313.98 177.516 323.021 167.033 332.964 168.176 C 342.563 169.267 359.388 182.283 360.099 182.837 C 360.479 183.131 360.677 183.604 360.623 184.08 C 360.569 184.558 360.271 184.973 359.834 185.176 C 359.063 185.534 341.865 193.467 331.852 193.467 Z " fill="rgb(76,175,80)"/><path d=" M 203.213 95.579 C 207.484 101.624 221.201 120.252 231.107 124.796 C 241.12 129.389 254.626 122.639 258.069 120.744 C 257.255 116.898 253.55 102.249 243.554 97.663 C 233.649 93.119 210.581 94.872 203.213 95.579 Z  M 238.957 129.135 C 235.905 129.135 232.832 128.622 229.957 127.304 C 217.443 121.563 200.326 96.291 199.604 95.219 C 199.335 94.82 199.293 94.309 199.494 93.872 C 199.694 93.436 200.108 93.135 200.585 93.079 C 201.87 92.926 232.19 89.416 244.704 95.156 C 257.53 101.039 260.838 120.406 260.973 121.229 C 261.064 121.783 260.81 122.336 260.331 122.629 C 259.779 122.966 249.518 129.135 238.957 129.135 Z " fill="rgb(76,175,80)"/><path d=" M 221.807 180.969 C 227.598 184.961 245.244 196.6 255.207 197.388 C 265.253 198.156 274.78 188.171 277.247 185.356 C 275.253 182.186 267.421 170.801 257.373 170.006 C 247.416 169.213 228.153 177.937 221.807 180.969 Z  M 256.363 200.192 C 255.907 200.192 255.45 200.174 254.99 200.137 C 242.239 199.129 219.263 182.575 218.291 181.872 C 217.902 181.59 217.687 181.125 217.725 180.646 C 217.763 180.167 218.048 179.742 218.476 179.525 C 219.547 178.983 244.843 166.247 257.591 167.257 C 270.682 168.292 279.763 184.138 280.143 184.812 C 280.418 185.301 280.37 185.907 280.021 186.348 C 279.557 186.932 268.871 200.192 256.363 200.192 Z " fill="rgb(76,175,80)"/><path d=" M 325.486 74.931 C 317.067 74.931 310.217 81.782 310.217 90.201 C 310.217 98.619 317.067 105.47 325.486 105.47 C 333.905 105.47 340.755 98.619 340.755 90.201 C 340.755 81.782 333.905 74.931 325.486 74.931 Z  M 325.486 108.228 C 315.546 108.228 307.459 100.141 307.459 90.201 C 307.459 80.26 315.546 72.173 325.486 72.173 C 335.426 72.173 343.513 80.26 343.513 90.201 C 343.513 100.141 335.426 108.228 325.486 108.228 Z " fill="rgb(255,193,7)"/><path d=" M 325.486 69.747 C 324.724 69.747 324.107 69.13 324.107 68.368 L 324.107 59.122 C 324.107 58.359 324.724 57.743 325.486 57.743 C 326.248 57.743 326.865 58.359 326.865 59.122 L 326.865 68.368 C 326.865 69.13 326.248 69.747 325.486 69.747 Z " fill="rgb(255,193,7)"/><path d=" M 314.571 72.672 C 314.094 72.672 313.631 72.425 313.376 71.983 L 308.752 63.975 C 308.371 63.315 308.597 62.471 309.257 62.091 C 309.918 61.71 310.76 61.936 311.14 62.595 L 315.764 70.604 C 316.145 71.263 315.919 72.107 315.259 72.487 C 315.042 72.612 314.805 72.672 314.571 72.672 Z " fill="rgb(255,193,7)"/><path d=" M 306.577 80.664 C 306.343 80.664 306.106 80.604 305.889 80.478 L 297.881 75.855 C 297.222 75.476 296.995 74.632 297.377 73.971 C 297.757 73.313 298.6 73.087 299.26 73.468 L 307.268 78.091 C 307.928 78.471 308.154 79.314 307.773 79.975 C 307.517 80.417 307.054 80.664 306.577 80.664 Z " fill="rgb(255,193,7)"/><path d=" M 303.654 91.58 L 294.406 91.58 C 293.644 91.58 293.027 90.963 293.027 90.201 C 293.027 89.439 293.644 88.822 294.406 88.822 L 303.654 88.822 C 304.415 88.822 305.032 89.439 305.032 90.201 C 305.032 90.963 304.415 91.58 303.654 91.58 Z " fill="rgb(255,193,7)"/><path d=" M 298.572 107.12 C 298.095 107.12 297.632 106.872 297.377 106.431 C 296.995 105.77 297.221 104.928 297.881 104.547 L 305.889 99.924 C 306.549 99.543 307.392 99.768 307.773 100.428 C 308.154 101.088 307.927 101.931 307.268 102.311 L 299.26 106.934 C 299.043 107.06 298.806 107.12 298.572 107.12 Z " fill="rgb(255,193,7)"/><path d=" M 309.945 118.495 C 309.711 118.495 309.474 118.435 309.257 118.31 C 308.597 117.93 308.371 117.086 308.752 116.427 L 313.376 108.419 C 313.757 107.759 314.599 107.533 315.259 107.914 C 315.919 108.294 316.145 109.139 315.764 109.798 L 311.14 117.806 C 310.885 118.247 310.422 118.495 309.945 118.495 Z " fill="rgb(255,193,7)"/><path d=" M 325.486 122.659 C 324.724 122.659 324.107 122.042 324.107 121.28 L 324.107 112.033 C 324.107 111.271 324.724 110.654 325.486 110.654 C 326.248 110.654 326.865 111.271 326.865 112.033 L 326.865 121.28 C 326.865 122.042 326.248 122.659 325.486 122.659 Z " fill="rgb(255,193,7)"/><path d=" M 341.027 118.495 C 340.55 118.495 340.087 118.247 339.832 117.806 L 335.209 109.798 C 334.827 109.139 335.053 108.294 335.713 107.914 C 336.374 107.533 337.216 107.759 337.597 108.419 L 342.22 116.427 C 342.601 117.086 342.375 117.93 341.715 118.31 C 341.498 118.435 341.261 118.495 341.027 118.495 Z " fill="rgb(255,193,7)"/><path d=" M 352.4 107.12 C 352.166 107.12 351.929 107.06 351.712 106.934 L 343.704 102.311 C 343.044 101.931 342.818 101.088 343.199 100.428 C 343.579 99.768 344.423 99.543 345.083 99.924 L 353.091 104.547 C 353.751 104.928 353.977 105.77 353.595 106.431 C 353.34 106.872 352.877 107.12 352.4 107.12 Z " fill="rgb(255,193,7)"/><path d=" M 356.565 91.58 L 347.318 91.58 C 346.557 91.58 345.94 90.963 345.94 90.201 C 345.94 89.439 346.557 88.822 347.318 88.822 L 356.565 88.822 C 357.327 88.822 357.944 89.439 357.944 90.201 C 357.944 90.963 357.327 91.58 356.565 91.58 Z " fill="rgb(255,193,7)"/><path d=" M 344.395 80.664 C 343.918 80.664 343.455 80.417 343.199 79.975 C 342.818 79.314 343.044 78.471 343.704 78.091 L 351.712 73.468 C 352.373 73.087 353.215 73.313 353.596 73.971 C 353.977 74.632 353.751 75.476 353.091 75.855 L 345.083 80.478 C 344.866 80.604 344.629 80.664 344.395 80.664 Z " fill="rgb(255,193,7)"/><path d=" M 336.401 72.672 C 336.167 72.672 335.93 72.612 335.713 72.487 C 335.053 72.107 334.827 71.263 335.208 70.604 L 339.831 62.595 C 340.212 61.936 341.055 61.71 341.715 62.091 C 342.374 62.471 342.601 63.315 342.219 63.975 L 337.596 71.983 C 337.341 72.425 336.878 72.672 336.401 72.672 Z " fill="rgb(255,193,7)"/><path d=" M 354.973 257.257 L 225.104 257.257 C 224.342 257.257 223.724 256.64 223.724 255.878 C 223.724 255.117 224.342 254.499 225.104 254.499 L 295.533 254.499 L 310.051 254.499 L 354.973 254.499 C 355.735 254.499 356.352 255.117 356.352 255.878 C 356.352 256.64 355.735 257.257 354.973 257.257 Z " fill="rgb(76,175,80)"/><path d=" M 300.973 257.257 L 171.104 257.257 C 170.342 257.257 169.724 256.64 169.724 255.878 C 169.724 255.117 170.342 254.499 171.104 254.499 L 241.533 254.499 L 256.051 254.499 L 300.973 254.499 C 301.735 254.499 302.352 255.117 302.352 255.878 C 302.352 256.64 301.735 257.257 300.973 257.257 Z " fill="rgb(76,175,80)"/><path d=" M 399.973 257.257 L 270.104 257.257 C 269.342 257.257 268.724 256.64 268.724 255.878 C 268.724 255.117 269.342 254.499 270.104 254.499 L 340.533 254.499 L 355.051 254.499 L 399.973 254.499 C 400.735 254.499 401.352 255.117 401.352 255.878 C 401.352 256.64 400.735 257.257 399.973 257.257 Z " fill="rgb(76,175,80)"/><path d=" M 241.523 254.499 L 275.603 254.499 C 274.9 245.709 267.525 238.772 258.563 238.772 C 249.6 238.772 242.227 245.709 241.523 254.499 Z  M 277.038 257.257 L 240.088 257.257 C 239.327 257.257 238.71 256.64 238.71 255.878 C 238.71 244.925 247.615 236.015 258.563 236.015 C 269.51 236.015 278.417 244.925 278.417 255.878 C 278.417 256.64 277.799 257.257 277.038 257.257 Z " fill="rgb(76,175,80)"/><path d=" M 322.539 254.495 L 328.432 254.495 L 328.432 245.845 L 322.539 250.191 L 322.539 254.495 Z  M 329.811 257.254 L 321.16 257.254 C 320.398 257.254 319.781 256.635 319.781 255.875 L 319.781 249.494 C 319.781 249.057 319.989 248.644 320.342 248.385 L 328.993 242.004 C 329.412 241.693 329.968 241.647 330.433 241.883 C 330.897 242.117 331.19 242.594 331.19 243.114 L 331.19 255.875 C 331.19 256.635 330.573 257.254 329.811 257.254 Z " fill="rgb(76,175,80)"/></g></g></svg>