<?xml version="1.0" standalone="no"?><!-- Generator: Gravit.io --><svg xmlns="http://www.w3.org/2000/svg" xmlns:xlink="http://www.w3.org/1999/xlink" style="isolation:isolate" viewBox="0 0 231.628 199.514" width="231.628" height="199.514"><defs><clipPath id="_clipPath_lzuHcZAjeVs4qULuR1CvrIYOILLO0KZG"><rect width="231.628" height="199.514"/></clipPath></defs><g clip-path="url(#_clipPath_lzuHcZAjeVs4qULuR1CvrIYOILLO0KZG)"><g><path d=" M 120.315 199.51 C 120.2 199.51 120.083 199.495 119.966 199.465 C 119.229 199.273 118.788 198.52 118.98 197.782 C 127.385 165.55 127.073 133.144 118.1 106.531 C 109.195 80.122 92.817 62.586 71.981 57.153 C 71.244 56.96 70.802 56.207 70.994 55.47 C 71.187 54.733 71.94 54.289 72.677 54.484 C 94.442 60.159 111.502 78.33 120.713 105.65 C 129.857 132.765 130.189 165.733 121.649 198.479 C 121.487 199.099 120.928 199.51 120.315 199.51 Z " fill="rgb(0,20,7)"/><path d=" M 125.953 140.736 C 125.837 140.736 125.721 140.721 125.604 140.691 C 124.867 140.499 124.425 139.746 124.617 139.008 C 128.21 125.234 142.336 116.949 156.11 120.545 C 156.847 120.737 157.288 121.49 157.097 122.227 C 156.904 122.965 156.149 123.404 155.414 123.214 C 149.45 121.659 143.242 122.516 137.932 125.629 C 132.622 128.742 128.842 133.741 127.286 139.706 C 127.124 140.326 126.565 140.736 125.953 140.736 Z " fill="rgb(0,20,7)"/><path d=" M 126.42 157.192 C 125.658 157.192 125.041 156.575 125.041 155.813 C 125.041 139.366 111.66 125.985 95.212 125.985 C 94.451 125.985 93.833 125.367 93.833 124.606 C 93.833 123.844 94.451 123.226 95.212 123.226 C 113.181 123.226 127.799 137.845 127.799 155.813 C 127.799 156.575 127.182 157.192 126.42 157.192 Z " fill="rgb(0,20,7)"/><path d=" M 146.62 121.305 C 148.193 123.953 153.569 132.082 160.688 132.891 C 167.775 133.702 181.54 128.151 186.819 125.874 C 182.185 122.472 170.011 113.977 162.928 113.173 C 155.792 112.36 148.745 119.075 146.62 121.305 Z  M 162.128 135.724 C 161.516 135.724 160.93 135.695 160.376 135.631 C 150.438 134.502 143.972 122.27 143.701 121.749 C 143.443 121.252 143.511 120.647 143.875 120.219 C 144.256 119.773 153.297 109.29 163.24 110.433 C 172.839 111.524 189.664 124.54 190.375 125.094 C 190.755 125.388 190.953 125.861 190.899 126.337 C 190.845 126.815 190.547 127.23 190.11 127.433 C 189.339 127.791 172.141 135.724 162.128 135.724 Z " fill="rgb(0,20,7)"/><path d=" M 33.489 37.836 C 37.76 43.881 51.477 62.509 61.383 67.053 C 71.396 71.646 84.902 64.896 88.345 63.001 C 87.531 59.155 83.826 44.506 73.83 39.92 C 63.925 35.376 40.857 37.129 33.489 37.836 Z  M 69.233 71.392 C 66.181 71.392 63.108 70.879 60.233 69.561 C 47.719 63.82 30.602 38.548 29.88 37.476 C 29.611 37.077 29.569 36.566 29.77 36.129 C 29.97 35.693 30.384 35.392 30.861 35.336 C 32.146 35.183 62.466 31.673 74.98 37.413 C 87.806 43.296 91.114 62.663 91.249 63.486 C 91.34 64.04 91.086 64.593 90.607 64.886 C 90.055 65.223 79.794 71.392 69.233 71.392 Z " fill="rgb(0,20,7)"/><path d=" M 52.083 123.226 C 57.874 127.218 75.52 138.857 85.483 139.645 C 95.529 140.413 105.056 130.428 107.523 127.613 C 105.529 124.443 97.697 113.058 87.649 112.263 C 77.692 111.47 58.429 120.194 52.083 123.226 Z  M 86.639 142.449 C 86.183 142.449 85.726 142.431 85.266 142.394 C 72.515 141.386 49.539 124.832 48.567 124.129 C 48.178 123.847 47.963 123.382 48.001 122.903 C 48.039 122.424 48.324 121.999 48.752 121.782 C 49.823 121.24 75.119 108.504 87.867 109.514 C 100.958 110.549 110.039 126.395 110.419 127.069 C 110.694 127.558 110.646 128.164 110.297 128.605 C 109.833 129.189 99.147 142.449 86.639 142.449 Z " fill="rgb(0,20,7)"/><path d=" M 155.762 17.188 C 147.343 17.188 140.493 24.039 140.493 32.458 C 140.493 40.876 147.343 47.727 155.762 47.727 C 164.181 47.727 171.031 40.876 171.031 32.458 C 171.031 24.039 164.181 17.188 155.762 17.188 Z  M 155.762 50.485 C 145.822 50.485 137.735 42.398 137.735 32.458 C 137.735 22.517 145.822 14.43 155.762 14.43 C 165.702 14.43 173.789 22.517 173.789 32.458 C 173.789 42.398 165.702 50.485 155.762 50.485 Z " fill="rgb(255,193,7)"/><path d=" M 155.762 12.004 C 155 12.004 154.383 11.387 154.383 10.625 L 154.383 1.379 C 154.383 0.616 155 0 155.762 0 C 156.524 0 157.141 0.616 157.141 1.379 L 157.141 10.625 C 157.141 11.387 156.524 12.004 155.762 12.004 Z " fill="rgb(255,193,7)"/><path d=" M 144.847 14.929 C 144.37 14.929 143.907 14.682 143.652 14.24 L 139.028 6.232 C 138.647 5.572 138.873 4.728 139.533 4.348 C 140.194 3.967 141.036 4.193 141.416 4.852 L 146.04 12.861 C 146.421 13.52 146.195 14.364 145.535 14.744 C 145.318 14.869 145.081 14.929 144.847 14.929 Z " fill="rgb(255,193,7)"/><path d=" M 136.853 22.921 C 136.619 22.921 136.382 22.861 136.165 22.735 L 128.157 18.112 C 127.498 17.733 127.271 16.889 127.653 16.228 C 128.033 15.57 128.876 15.344 129.536 15.725 L 137.544 20.348 C 138.204 20.728 138.43 21.571 138.049 22.232 C 137.793 22.674 137.33 22.921 136.853 22.921 Z " fill="rgb(255,193,7)"/><path d=" M 133.93 33.837 L 124.682 33.837 C 123.92 33.837 123.303 33.22 123.303 32.458 C 123.303 31.696 123.92 31.079 124.682 31.079 L 133.93 31.079 C 134.691 31.079 135.308 31.696 135.308 32.458 C 135.308 33.22 134.691 33.837 133.93 33.837 Z " fill="rgb(255,193,7)"/><path d=" M 128.848 49.377 C 128.371 49.377 127.908 49.129 127.653 48.688 C 127.271 48.027 127.497 47.185 128.157 46.804 L 136.165 42.181 C 136.825 41.8 137.668 42.025 138.049 42.685 C 138.43 43.345 138.203 44.188 137.544 44.568 L 129.536 49.191 C 129.319 49.317 129.082 49.377 128.848 49.377 Z " fill="rgb(255,193,7)"/><path d=" M 140.221 60.752 C 139.987 60.752 139.75 60.692 139.533 60.567 C 138.873 60.187 138.647 59.343 139.028 58.684 L 143.652 50.676 C 144.033 50.016 144.875 49.79 145.535 50.171 C 146.195 50.551 146.421 51.396 146.04 52.055 L 141.416 60.063 C 141.161 60.504 140.698 60.752 140.221 60.752 Z " fill="rgb(255,193,7)"/><path d=" M 155.762 64.916 C 155 64.916 154.383 64.299 154.383 63.537 L 154.383 54.29 C 154.383 53.528 155 52.911 155.762 52.911 C 156.524 52.911 157.141 53.528 157.141 54.29 L 157.141 63.537 C 157.141 64.299 156.524 64.916 155.762 64.916 Z " fill="rgb(255,193,7)"/><path d=" M 171.303 60.752 C 170.826 60.752 170.363 60.504 170.108 60.063 L 165.485 52.055 C 165.103 51.396 165.329 50.551 165.989 50.171 C 166.65 49.79 167.492 50.016 167.873 50.676 L 172.496 58.684 C 172.877 59.343 172.651 60.187 171.991 60.567 C 171.774 60.692 171.537 60.752 171.303 60.752 Z " fill="rgb(255,193,7)"/><path d=" M 182.676 49.377 C 182.442 49.377 182.205 49.317 181.988 49.191 L 173.98 44.568 C 173.32 44.188 173.094 43.345 173.475 42.685 C 173.855 42.025 174.699 41.8 175.359 42.181 L 183.367 46.804 C 184.027 47.185 184.253 48.027 183.871 48.688 C 183.616 49.129 183.153 49.377 182.676 49.377 Z " fill="rgb(255,193,7)"/><path d=" M 186.841 33.837 L 177.594 33.837 C 176.833 33.837 176.216 33.22 176.216 32.458 C 176.216 31.696 176.833 31.079 177.594 31.079 L 186.841 31.079 C 187.603 31.079 188.22 31.696 188.22 32.458 C 188.22 33.22 187.603 33.837 186.841 33.837 Z " fill="rgb(255,193,7)"/><path d=" M 174.671 22.921 C 174.194 22.921 173.731 22.674 173.475 22.232 C 173.094 21.571 173.32 20.728 173.98 20.348 L 181.988 15.725 C 182.649 15.344 183.491 15.57 183.872 16.228 C 184.253 16.889 184.027 17.733 183.367 18.112 L 175.359 22.735 C 175.142 22.861 174.905 22.921 174.671 22.921 Z " fill="rgb(255,193,7)"/><path d=" M 166.677 14.929 C 166.443 14.929 166.206 14.869 165.989 14.744 C 165.329 14.364 165.103 13.52 165.484 12.861 L 170.107 4.852 C 170.488 4.193 171.331 3.967 171.991 4.348 C 172.65 4.728 172.877 5.572 172.495 6.232 L 167.872 14.24 C 167.617 14.682 167.154 14.929 166.677 14.929 Z " fill="rgb(255,193,7)"/><path d=" M 185.249 199.514 L 55.38 199.514 C 54.618 199.514 54 198.897 54 198.135 C 54 197.374 54.618 196.756 55.38 196.756 L 185.249 196.756 C 186.011 196.756 186.628 197.374 186.628 198.135 C 186.628 198.897 186.011 199.514 185.249 199.514 Z " fill="rgb(0,20,7)"/><path d=" M 71.799 196.756 L 105.879 196.756 C 105.176 187.966 97.801 181.029 88.839 181.029 C 79.876 181.029 72.503 187.966 71.799 196.756 Z  M 107.314 199.514 L 70.364 199.514 C 69.603 199.514 68.986 198.897 68.986 198.135 C 68.986 187.182 77.891 178.272 88.839 178.272 C 99.786 178.272 108.693 187.182 108.693 198.135 C 108.693 198.897 108.075 199.514 107.314 199.514 Z " fill="rgb(0,20,7)"/><path d=" M 152.815 196.752 L 158.708 196.752 L 158.708 188.102 L 152.815 192.448 L 152.815 196.752 Z  M 160.087 199.511 L 151.436 199.511 C 150.674 199.511 150.057 198.892 150.057 198.132 L 150.057 191.751 C 150.057 191.314 150.265 190.901 150.618 190.642 L 159.269 184.261 C 159.688 183.95 160.244 183.904 160.709 184.14 C 161.173 184.374 161.466 184.851 161.466 185.371 L 161.466 198.132 C 161.466 198.892 160.849 199.511 160.087 199.511 Z " fill="rgb(0,20,7)"/><path d=" M 120.315 199.51 C 120.2 199.51 120.083 199.495 119.966 199.465 C 119.229 199.273 118.788 198.52 118.98 197.782 C 127.385 165.55 127.073 133.144 118.1 106.531 C 109.195 80.122 92.817 62.586 71.981 57.153 C 71.244 56.96 70.802 56.207 70.994 55.47 C 71.187 54.733 71.94 54.289 72.677 54.484 C 94.442 60.159 111.502 78.33 120.713 105.65 C 129.857 132.765 130.189 165.733 121.649 198.479 C 121.487 199.099 120.928 199.51 120.315 199.51 Z " fill="rgb(76,175,80)"/><path d=" M 125.953 140.736 C 125.837 140.736 125.721 140.721 125.604 140.691 C 124.867 140.499 124.425 139.746 124.617 139.008 C 128.21 125.234 142.336 116.949 156.11 120.545 C 156.847 120.737 157.288 121.49 157.097 122.227 C 156.904 122.965 156.149 123.404 155.414 123.214 C 149.45 121.659 143.242 122.516 137.932 125.629 C 132.622 128.742 128.842 133.741 127.286 139.706 C 127.124 140.326 126.565 140.736 125.953 140.736 Z " fill="rgb(76,175,80)"/><path d=" M 126.42 157.192 C 125.658 157.192 125.041 156.575 125.041 155.813 C 125.041 139.366 111.66 125.985 95.212 125.985 C 94.451 125.985 93.833 125.367 93.833 124.606 C 93.833 123.844 94.451 123.226 95.212 123.226 C 113.181 123.226 127.799 137.845 127.799 155.813 C 127.799 156.575 127.182 157.192 126.42 157.192 Z " fill="rgb(76,175,80)"/><path d=" M 146.62 121.305 C 148.193 123.953 153.569 132.082 160.688 132.891 C 167.775 133.702 181.54 128.151 186.819 125.874 C 182.185 122.472 170.011 113.977 162.928 113.173 C 155.792 112.36 148.745 119.075 146.62 121.305 Z  M 162.128 135.724 C 161.516 135.724 160.93 135.695 160.376 135.631 C 150.438 134.502 143.972 122.27 143.701 121.749 C 143.443 121.252 143.511 120.647 143.875 120.219 C 144.256 119.773 153.297 109.29 163.24 110.433 C 172.839 111.524 189.664 124.54 190.375 125.094 C 190.755 125.388 190.953 125.861 190.899 126.337 C 190.845 126.815 190.547 127.23 190.11 127.433 C 189.339 127.791 172.141 135.724 162.128 135.724 Z " fill="rgb(76,175,80)"/><path d=" M 33.489 37.836 C 37.76 43.881 51.477 62.509 61.383 67.053 C 71.396 71.646 84.902 64.896 88.345 63.001 C 87.531 59.155 83.826 44.506 73.83 39.92 C 63.925 35.376 40.857 37.129 33.489 37.836 Z  M 69.233 71.392 C 66.181 71.392 63.108 70.879 60.233 69.561 C 47.719 63.82 30.602 38.548 29.88 37.476 C 29.611 37.077 29.569 36.566 29.77 36.129 C 29.97 35.693 30.384 35.392 30.861 35.336 C 32.146 35.183 62.466 31.673 74.98 37.413 C 87.806 43.296 91.114 62.663 91.249 63.486 C 91.34 64.04 91.086 64.593 90.607 64.886 C 90.055 65.223 79.794 71.392 69.233 71.392 Z " fill="rgb(76,175,80)"/><path d=" M 52.083 123.226 C 57.874 127.218 75.52 138.857 85.483 139.645 C 95.529 140.413 105.056 130.428 107.523 127.613 C 105.529 124.443 97.697 113.058 87.649 112.263 C 77.692 111.47 58.429 120.194 52.083 123.226 Z  M 86.639 142.449 C 86.183 142.449 85.726 142.431 85.266 142.394 C 72.515 141.386 49.539 124.832 48.567 124.129 C 48.178 123.847 47.963 123.382 48.001 122.903 C 48.039 122.424 48.324 121.999 48.752 121.782 C 49.823 121.24 75.119 108.504 87.867 109.514 C 100.958 110.549 110.039 126.395 110.419 127.069 C 110.694 127.558 110.646 128.164 110.297 128.605 C 109.833 129.189 99.147 142.449 86.639 142.449 Z " fill="rgb(76,175,80)"/><path d=" M 155.762 17.188 C 147.343 17.188 140.493 24.039 140.493 32.458 C 140.493 40.876 147.343 47.727 155.762 47.727 C 164.181 47.727 171.031 40.876 171.031 32.458 C 171.031 24.039 164.181 17.188 155.762 17.188 Z  M 155.762 50.485 C 145.822 50.485 137.735 42.398 137.735 32.458 C 137.735 22.517 145.822 14.43 155.762 14.43 C 165.702 14.43 173.789 22.517 173.789 32.458 C 173.789 42.398 165.702 50.485 155.762 50.485 Z " fill="rgb(255,193,7)"/><path d=" M 155.762 12.004 C 155 12.004 154.383 11.387 154.383 10.625 L 154.383 1.379 C 154.383 0.616 155 0 155.762 0 C 156.524 0 157.141 0.616 157.141 1.379 L 157.141 10.625 C 157.141 11.387 156.524 12.004 155.762 12.004 Z " fill="rgb(255,193,7)"/><path d=" M 144.847 14.929 C 144.37 14.929 143.907 14.682 143.652 14.24 L 139.028 6.232 C 138.647 5.572 138.873 4.728 139.533 4.348 C 140.194 3.967 141.036 4.193 141.416 4.852 L 146.04 12.861 C 146.421 13.52 146.195 14.364 145.535 14.744 C 145.318 14.869 145.081 14.929 144.847 14.929 Z " fill="rgb(255,193,7)"/><path d=" M 136.853 22.921 C 136.619 22.921 136.382 22.861 136.165 22.735 L 128.157 18.112 C 127.498 17.733 127.271 16.889 127.653 16.228 C 128.033 15.57 128.876 15.344 129.536 15.725 L 137.544 20.348 C 138.204 20.728 138.43 21.571 138.049 22.232 C 137.793 22.674 137.33 22.921 136.853 22.921 Z " fill="rgb(255,193,7)"/><path d=" M 133.93 33.837 L 124.682 33.837 C 123.92 33.837 123.303 33.22 123.303 32.458 C 123.303 31.696 123.92 31.079 124.682 31.079 L 133.93 31.079 C 134.691 31.079 135.308 31.696 135.308 32.458 C 135.308 33.22 134.691 33.837 133.93 33.837 Z " fill="rgb(255,193,7)"/><path d=" M 128.848 49.377 C 128.371 49.377 127.908 49.129 127.653 48.688 C 127.271 48.027 127.497 47.185 128.157 46.804 L 136.165 42.181 C 136.825 41.8 137.668 42.025 138.049 42.685 C 138.43 43.345 138.203 44.188 137.544 44.568 L 129.536 49.191 C 129.319 49.317 129.082 49.377 128.848 49.377 Z " fill="rgb(255,193,7)"/><path d=" M 140.221 60.752 C 139.987 60.752 139.75 60.692 139.533 60.567 C 138.873 60.187 138.647 59.343 139.028 58.684 L 143.652 50.676 C 144.033 50.016 144.875 49.79 145.535 50.171 C 146.195 50.551 146.421 51.396 146.04 52.055 L 141.416 60.063 C 141.161 60.504 140.698 60.752 140.221 60.752 Z " fill="rgb(255,193,7)"/><path d=" M 155.762 64.916 C 155 64.916 154.383 64.299 154.383 63.537 L 154.383 54.29 C 154.383 53.528 155 52.911 155.762 52.911 C 156.524 52.911 157.141 53.528 157.141 54.29 L 157.141 63.537 C 157.141 64.299 156.524 64.916 155.762 64.916 Z " fill="rgb(255,193,7)"/><path d=" M 171.303 60.752 C 170.826 60.752 170.363 60.504 170.108 60.063 L 165.485 52.055 C 165.103 51.396 165.329 50.551 165.989 50.171 C 166.65 49.79 167.492 50.016 167.873 50.676 L 172.496 58.684 C 172.877 59.343 172.651 60.187 171.991 60.567 C 171.774 60.692 171.537 60.752 171.303 60.752 Z " fill="rgb(255,193,7)"/><path d=" M 182.676 49.377 C 182.442 49.377 182.205 49.317 181.988 49.191 L 173.98 44.568 C 173.32 44.188 173.094 43.345 173.475 42.685 C 173.855 42.025 174.699 41.8 175.359 42.181 L 183.367 46.804 C 184.027 47.185 184.253 48.027 183.871 48.688 C 183.616 49.129 183.153 49.377 182.676 49.377 Z " fill="rgb(255,193,7)"/><path d=" M 186.841 33.837 L 177.594 33.837 C 176.833 33.837 176.216 33.22 176.216 32.458 C 176.216 31.696 176.833 31.079 177.594 31.079 L 186.841 31.079 C 187.603 31.079 188.22 31.696 188.22 32.458 C 188.22 33.22 187.603 33.837 186.841 33.837 Z " fill="rgb(255,193,7)"/><path d=" M 174.671 22.921 C 174.194 22.921 173.731 22.674 173.475 22.232 C 173.094 21.571 173.32 20.728 173.98 20.348 L 181.988 15.725 C 182.649 15.344 183.491 15.57 183.872 16.228 C 184.253 16.889 184.027 17.733 183.367 18.112 L 175.359 22.735 C 175.142 22.861 174.905 22.921 174.671 22.921 Z " fill="rgb(255,193,7)"/><path d=" M 166.677 14.929 C 166.443 14.929 166.206 14.869 165.989 14.744 C 165.329 14.364 165.103 13.52 165.484 12.861 L 170.107 4.852 C 170.488 4.193 171.331 3.967 171.991 4.348 C 172.65 4.728 172.877 5.572 172.495 6.232 L 167.872 14.24 C 167.617 14.682 167.154 14.929 166.677 14.929 Z " fill="rgb(255,193,7)"/><path d=" M 185.249 199.514 L 55.38 199.514 C 54.618 199.514 54 198.897 54 198.135 C 54 197.374 54.618 196.756 55.38 196.756 L 125.809 196.756 L 140.327 196.756 L 185.249 196.756 C 186.011 196.756 186.628 197.374 186.628 198.135 C 186.628 198.897 186.011 199.514 185.249 199.514 Z " fill="rgb(76,175,80)"/><path d=" M 131.249 199.514 L 1.38 199.514 C 0.618 199.514 0 198.897 0 198.135 C 0 197.374 0.618 196.756 1.38 196.756 L 71.809 196.756 L 86.327 196.756 L 131.249 196.756 C 132.011 196.756 132.628 197.374 132.628 198.135 C 132.628 198.897 132.011 199.514 131.249 199.514 Z " fill="rgb(76,175,80)"/><path d=" M 230.249 199.514 L 100.38 199.514 C 99.618 199.514 99 198.897 99 198.135 C 99 197.374 99.618 196.756 100.38 196.756 L 170.809 196.756 L 185.327 196.756 L 230.249 196.756 C 231.011 196.756 231.628 197.374 231.628 198.135 C 231.628 198.897 231.011 199.514 230.249 199.514 Z " fill="rgb(76,175,80)"/><path d=" M 71.799 196.756 L 105.879 196.756 C 105.176 187.966 97.801 181.029 88.839 181.029 C 79.876 181.029 72.503 187.966 71.799 196.756 Z  M 107.314 199.514 L 70.364 199.514 C 69.603 199.514 68.986 198.897 68.986 198.135 C 68.986 187.182 77.891 178.272 88.839 178.272 C 99.786 178.272 108.693 187.182 108.693 198.135 C 108.693 198.897 108.075 199.514 107.314 199.514 Z " fill="rgb(76,175,80)"/><path d=" M 152.815 196.752 L 158.708 196.752 L 158.708 188.102 L 152.815 192.448 L 152.815 196.752 Z  M 160.087 199.511 L 151.436 199.511 C 150.674 199.511 150.057 198.892 150.057 198.132 L 150.057 191.751 C 150.057 191.314 150.265 190.901 150.618 190.642 L 159.269 184.261 C 159.688 183.95 160.244 183.904 160.709 184.14 C 161.173 184.374 161.466 184.851 161.466 185.371 L 161.466 198.132 C 161.466 198.892 160.849 199.511 160.087 199.511 Z " fill="rgb(76,175,80)"/></g></g></svg>