<svg xmlns="http://www.w3.org/2000/svg" viewBox="0 0 64 64">
  <path style="fill: rgb(255,255,255);" d="M 42.019531 0.98828125 C 37.667031 0.98828125 33.315 2.6459375 30 5.9609375 L 21.560547 14.400391 C 21.540547 14.410391 21.529766 14.419453 21.509766 14.439453 C 21.499766 14.459453 21.480703 14.470234 21.470703 14.490234 L 14.447266 21.511719 C 14.446266 21.512719 14.444359 21.514625 14.443359 21.515625 C 14.442359 21.516625 14.442406 21.518531 14.441406 21.519531 L 5.9609375 30 C -0.6690625 36.63 -0.6690625 47.409063 5.9609375 54.039062 C 9.2709375 57.359063 13.630469 59.009766 17.980469 59.009766 C 22.090469 59.009766 26.209219 57.540312 29.449219 54.570312 C 32.719219 59.070312 38.02 62 44 62 C 53.93 62 62 53.93 62 44 C 62 38.02 59.070312 32.719219 54.570312 29.449219 C 60.670313 22.779219 60.489063 12.410937 54.039062 5.9609375 C 50.724063 2.6459375 46.372031 0.98828125 42.019531 0.98828125 z M 42.019531 2.9902344 C 45.859531 2.9902344 49.700859 4.4491406 52.630859 7.3691406 C 58.400859 13.139141 58.479375 22.489609 52.859375 28.349609 C 50.249375 26.849609 47.22 26 44 26 C 41.23 26 38.6 26.629766 36.25 27.759766 L 23.640625 15.150391 L 31.410156 7.3691406 C 34.340156 4.4491406 38.179531 2.9902344 42.019531 2.9902344 z M 42 5 C 40.601 5 39.224203 5.22025 37.908203 5.65625 C 37.384203 5.83025 37.099438 6.397875 37.273438 6.921875 C 37.447437 7.445875 38.013109 7.7316406 38.537109 7.5566406 C 41.263109 6.6546406 44.311672 6.8615781 46.888672 8.1425781 C 47.031672 8.2135781 47.183031 8.2460938 47.332031 8.2460938 C 47.700031 8.2460938 48.054516 8.0434063 48.228516 7.6914062 C 48.474516 7.1964062 48.273297 6.5975625 47.779297 6.3515625 C 45.974297 5.4555625 44.03 5 42 5 z M 50.554688 8.578125 C 50.298687 8.576625 50.04075 8.6717344 49.84375 8.8652344 C 49.45075 9.2532344 49.447938 9.88725 49.835938 10.28125 C 50.240938 10.68925 50.614172 11.135469 50.951172 11.605469 C 51.146172 11.878469 51.453625 12.023438 51.765625 12.023438 C 51.966625 12.023438 52.171656 11.963891 52.347656 11.837891 C 52.796656 11.516891 52.900125 10.890406 52.578125 10.441406 C 52.181125 9.8854062 51.737766 9.359 51.259766 8.875 C 51.065766 8.6785 50.810688 8.579625 50.554688 8.578125 z M 22.220703 16.570312 L 34.421875 28.769531 C 29.360875 31.959531 26 37.59 26 44 C 26 47.22 26.849609 50.249375 28.349609 52.859375 C 22.489609 58.479375 13.139141 58.400859 7.3691406 52.630859 C 1.5191406 46.780859 1.5191406 37.260156 7.3691406 31.410156 L 15.150391 23.634766 L 19.585938 28.070312 C 19.780938 28.265313 20.036969 28.363281 20.292969 28.363281 C 20.548969 28.363281 20.805 28.265312 21 28.070312 C 21.391 27.679313 21.391 27.04725 21 26.65625 L 16.564453 22.222656 L 17.980469 20.808594 C 18.175469 21.003594 18.4315 21.101562 18.6875 21.101562 C 18.9435 21.101562 19.199531 21.003594 19.394531 20.808594 L 20.808594 19.394531 C 21.198594 19.004531 21.197594 18.371469 20.808594 17.980469 L 22.220703 16.570312 z M 23.636719 21.220703 C 23.380969 21.220703 23.125188 21.318172 22.929688 21.513672 L 21.515625 22.929688 C 21.124625 23.320688 21.124625 23.95275 21.515625 24.34375 C 21.710625 24.53875 21.966656 24.636719 22.222656 24.636719 C 22.478656 24.636719 22.733688 24.53975 22.929688 24.34375 L 24.34375 22.927734 C 24.73475 22.536734 24.73475 21.904672 24.34375 21.513672 C 24.14825 21.318172 23.892469 21.220703 23.636719 21.220703 z M 27.171875 24.755859 C 26.916125 24.755859 26.660344 24.855281 26.464844 25.050781 L 25.050781 26.464844 C 24.659781 26.855844 24.659781 27.487906 25.050781 27.878906 C 25.246781 28.074906 25.501813 28.171875 25.757812 28.171875 C 26.013813 28.171875 26.269844 28.073906 26.464844 27.878906 L 27.878906 26.464844 C 28.269906 26.073844 28.269906 25.441781 27.878906 25.050781 C 27.683406 24.855281 27.427625 24.755859 27.171875 24.755859 z M 44 28 C 46.67 28 49.190391 28.660312 51.400391 29.820312 C 52.010391 30.140313 52.590391 30.490625 53.150391 30.890625 C 57.290391 33.780625 60 38.58 60 44 C 60 52.82 52.82 60 44 60 C 38.58 60 33.780625 57.290391 30.890625 53.150391 C 30.490625 52.590391 30.140312 52.010391 29.820312 51.400391 C 28.660312 49.190391 28 46.67 28 44 C 28 38.14 31.170859 33.010469 35.880859 30.230469 C 36.480859 29.860469 37.109766 29.549531 37.759766 29.269531 C 39.679766 28.449531 41.79 28 44 28 z M 30.707031 28.292969 C 30.451281 28.292969 30.1955 28.390438 30 28.585938 L 28.585938 30 C 28.194938 30.391 28.194937 31.023062 28.585938 31.414062 C 28.780938 31.609063 29.036969 31.707031 29.292969 31.707031 C 29.548969 31.707031 29.805 31.609063 30 31.414062 L 31.414062 30 C 31.805062 29.609 31.805063 28.976938 31.414062 28.585938 C 31.218563 28.390437 30.962781 28.292969 30.707031 28.292969 z M 23.121094 29.191406 C 22.865344 29.191406 22.609563 29.288875 22.414062 29.484375 C 22.023062 29.875375 22.023062 30.507437 22.414062 30.898438 L 25.242188 33.728516 C 25.437188 33.923516 25.693219 34.021484 25.949219 34.021484 C 26.205219 34.021484 26.46125 33.923516 26.65625 33.728516 C 27.04625 33.337516 27.04625 32.705453 26.65625 32.314453 L 23.828125 29.484375 C 23.632625 29.288875 23.376844 29.191406 23.121094 29.191406 z M 52.849609 34.150391 C 52.593859 34.150391 52.338078 34.247859 52.142578 34.443359 L 34.515625 52.070312 C 34.124625 52.461312 34.124625 53.093375 34.515625 53.484375 C 34.710625 53.679375 34.966656 53.777344 35.222656 53.777344 C 35.478656 53.777344 35.734687 53.679375 35.929688 53.484375 L 53.556641 35.857422 C 53.947641 35.466422 53.947641 34.834359 53.556641 34.443359 C 53.361141 34.247859 53.105359 34.150391 52.849609 34.150391 z"></path>
</svg>