<?xml version="1.0" standalone="no"?><!-- Generator: Gravit.io --><svg xmlns="http://www.w3.org/2000/svg" xmlns:xlink="http://www.w3.org/1999/xlink" style="isolation:isolate" viewBox="0 0 197.154 191.352" width="197.154" height="191.352"><defs><clipPath id="_clipPath_AbnkW5OLtaCjnPyUf2sP11VeJ1qHiksM"><rect width="197.154" height="191.352"/></clipPath></defs><g clip-path="url(#_clipPath_AbnkW5OLtaCjnPyUf2sP11VeJ1qHiksM)"><path d=" M 29.365 86.628 C 52.072 110.089 87.052 114.572 94.735 115.287 C 94.267 107.585 90.916 72.458 68.228 49.016 C 45.521 25.556 10.541 21.072 2.858 20.357 C 3.326 28.063 6.679 63.188 29.365 86.628 Z  M 97.593 118.24 L 96.115 118.163 C 95.693 118.142 53.63 115.665 27.384 88.546 C 1.137 61.428 0.036 19.308 0.028 18.885 L 0 17.404 L 1.478 17.482 C 1.9 17.503 43.963 19.98 70.209 47.098 C 96.456 74.216 97.557 116.337 97.565 116.76 L 97.593 118.24 Z " fill="rgb(76,175,80)"/><path d=" M 96.186 118.165 C 95.833 118.165 95.48 118.03 95.211 117.761 L 41.556 64.106 C 41.018 63.568 41.018 62.695 41.556 62.156 C 42.095 61.618 42.968 61.618 43.506 62.156 L 97.161 115.811 C 97.7 116.35 97.7 117.223 97.161 117.761 C 96.892 118.03 96.539 118.165 96.186 118.165 Z " fill="rgb(76,175,80)"/><path d=" M 194.15 3.213 C 186.371 4.551 153.692 11.406 131.642 34.987 C 109.574 58.587 104.938 91.634 104.128 99.484 C 111.907 98.147 144.587 91.291 166.637 67.71 C 188.687 44.13 193.337 11.065 194.15 3.213 Z  M 101.125 102.696 L 101.222 101.039 C 101.246 100.638 103.881 60.636 129.627 33.104 C 155.373 5.569 195.108 0.259 195.506 0.209 L 197.154 0 L 197.057 1.657 C 197.033 2.059 194.397 42.062 168.651 69.594 C 142.906 97.127 103.171 102.439 102.772 102.488 L 101.125 102.696 Z " fill="rgb(76,175,80)"/><path d=" M 102.583 102.624 C 102.253 102.624 101.922 102.506 101.658 102.268 C 101.093 101.757 101.05 100.884 101.561 100.319 L 152.474 44.057 C 152.985 43.491 153.857 43.448 154.422 43.959 C 154.987 44.471 155.03 45.343 154.52 45.908 L 103.606 102.171 C 103.333 102.472 102.959 102.624 102.583 102.624 Z " fill="rgb(76,175,80)"/><path d=" M 35.756 188.594 L 160.874 188.594 C 151.451 177.067 137.226 170.262 122.288 170.262 C 117.21 170.262 112.198 171.026 107.393 172.53 C 106.994 172.654 106.564 172.591 106.217 172.362 C 98.042 166.925 88.519 164.051 78.676 164.051 C 60.942 164.051 44.704 173.396 35.756 188.594 Z  M 163.68 191.352 L 33.407 191.352 C 32.923 191.352 32.476 191.099 32.226 190.685 C 31.976 190.271 31.962 189.756 32.188 189.328 C 41.33 172.035 59.143 161.292 78.676 161.292 C 88.845 161.292 98.692 164.198 107.196 169.704 C 112.077 168.243 117.151 167.504 122.288 167.504 C 139.029 167.504 154.919 175.6 164.794 189.161 C 165.1 189.58 165.144 190.137 164.909 190.599 C 164.673 191.062 164.198 191.352 163.68 191.352 Z " fill="rgb(76,175,80)"/><path d=" M 97.689 164.852 C 98.88 165.314 100.056 165.822 101.205 166.367 L 101.205 93.321 C 101.205 92.425 100.604 91.634 99.808 91.481 C 99.266 91.378 98.741 91.507 98.328 91.848 C 97.922 92.184 97.689 92.678 97.689 93.205 L 97.689 164.852 Z  M 103.962 170.893 L 101.938 169.82 C 99.988 168.787 97.934 167.872 95.834 167.099 L 94.931 166.767 L 94.931 93.205 C 94.931 91.853 95.528 90.583 96.571 89.722 C 97.613 88.862 98.983 88.516 100.328 88.772 C 102.435 89.178 103.962 91.09 103.962 93.321 L 103.962 170.893 Z " fill="rgb(76,175,80)"/></g></svg>