<?xml version="1.0" standalone="no"?><!-- Generator: Gravit.io --><svg xmlns="http://www.w3.org/2000/svg" xmlns:xlink="http://www.w3.org/1999/xlink" style="isolation:isolate" viewBox="0 0 146.68 206.87" width="146.68" height="206.87"><defs><clipPath id="_clipPath_UauxDSdALeMn1xrW7EJp0vBkPSKVet2Z"><rect width="146.68" height="206.87"/></clipPath></defs><g clip-path="url(#_clipPath_UauxDSdALeMn1xrW7EJp0vBkPSKVet2Z)"><path d=" M 125.206 101.441 C 119.933 102.021 102.299 104.809 90.692 116.802 C 79.066 128.814 76.868 146.514 76.464 151.799 C 81.737 151.219 99.371 148.431 110.979 136.438 C 122.604 124.426 124.802 106.726 125.206 101.441 Z  M 74.998 154.696 C 74.641 154.696 74.296 154.557 74.039 154.307 C 73.763 154.041 73.611 153.672 73.619 153.291 C 73.637 152.339 74.229 129.846 88.709 114.884 C 103.19 99.923 125.652 98.596 126.602 98.546 C 126.988 98.529 127.357 98.668 127.632 98.933 C 127.907 99.2 128.059 99.568 128.052 99.95 C 128.034 100.901 127.441 123.394 112.961 138.356 C 98.48 153.318 76.018 154.644 75.069 154.694 C 75.045 154.695 75.021 154.696 74.998 154.696 Z " fill="rgb(76,175,80)"/><path d=" M 74.997 154.696 C 74.644 154.696 74.291 154.561 74.022 154.292 C 73.483 153.753 73.483 152.881 74.022 152.342 L 103.276 123.088 C 103.814 122.549 104.687 122.549 105.226 123.088 C 105.765 123.627 105.765 124.499 105.226 125.038 L 75.972 154.292 C 75.703 154.561 75.35 154.696 74.997 154.696 Z " fill="rgb(76,175,80)"/><path d=" M 25.156 128.094 C 25.699 132.734 28.092 146.784 37.707 156.089 C 47.321 165.394 61.44 167.327 66.096 167.719 C 65.553 163.077 63.16 149.03 53.546 139.725 C 43.913 130.403 29.808 128.481 25.156 128.094 Z  M 67.62 170.573 L 67.594 170.573 C 66.807 170.558 48.183 170.068 35.789 158.072 C 23.394 146.075 22.296 127.478 22.255 126.692 C 22.235 126.31 22.375 125.936 22.641 125.661 C 22.907 125.387 23.278 125.224 23.658 125.241 C 24.445 125.256 43.069 125.745 55.464 137.742 C 67.858 149.738 68.957 168.336 68.998 169.123 C 69.017 169.505 68.878 169.878 68.612 170.153 C 68.351 170.421 67.994 170.573 67.62 170.573 Z " fill="rgb(76,175,80)"/><path d=" M 67.62 170.574 C 67.267 170.574 66.914 170.439 66.645 170.17 L 42.544 146.068 C 42.005 145.529 42.005 144.656 42.544 144.118 C 43.082 143.579 43.956 143.579 44.495 144.118 L 68.595 168.22 C 69.134 168.759 69.134 169.631 68.595 170.17 C 68.326 170.439 67.973 170.574 67.62 170.574 Z " fill="rgb(76,175,80)"/><path d=" M 84.274 87.648 C 87.204 92.722 93.542 94.963 96.206 95.707 C 96.891 93.024 98.116 86.4 95.196 81.342 C 93.32 78.093 90.922 75.429 88.444 73.84 C 86.272 72.45 84.286 72.077 82.996 72.823 C 81.706 73.568 81.035 75.472 81.154 78.05 C 81.29 80.99 82.398 84.399 84.274 87.648 Z  M 97.165 98.742 C 97.078 98.742 96.991 98.734 96.903 98.716 C 96.471 98.633 86.253 96.592 81.885 89.028 C 79.793 85.403 78.554 81.55 78.399 78.177 C 78.228 74.481 79.371 71.731 81.617 70.434 C 83.863 69.136 86.816 69.521 89.932 71.519 C 92.774 73.339 95.492 76.338 97.585 79.963 C 101.953 87.528 98.611 97.397 98.467 97.814 C 98.272 98.377 97.742 98.742 97.165 98.742 Z " fill="rgb(255,193,7)"/><path d=" M 71.445 3.293 C 69.509 5.275 65.139 10.397 65.139 16.236 C 65.139 24.179 68.463 29.714 71.445 29.714 C 74.428 29.714 77.751 24.179 77.751 16.236 C 77.751 10.397 73.381 5.275 71.445 3.293 Z  M 71.445 32.473 C 66.362 32.473 62.381 25.341 62.381 16.236 C 62.381 7.501 70.21 0.625 70.543 0.337 C 71.061 -0.112 71.83 -0.112 72.348 0.337 C 72.681 0.625 80.509 7.501 80.509 16.236 C 80.509 25.341 76.528 32.473 71.445 32.473 Z " fill="rgb(255,193,7)"/><path d=" M 46.684 9.928 C 45.998 12.612 44.775 19.233 47.694 24.289 C 51.666 31.168 57.31 34.302 59.895 32.809 C 62.477 31.318 62.588 24.863 58.616 17.984 C 55.697 12.927 49.351 10.676 46.684 9.928 Z  M 58.396 35.94 C 54.195 35.94 48.958 31.995 45.306 25.668 C 40.938 18.103 44.279 8.235 44.423 7.818 C 44.648 7.169 45.316 6.782 45.987 6.915 C 46.42 6.998 56.638 9.039 61.005 16.605 C 65.558 24.489 65.676 32.656 61.274 35.198 C 60.404 35.699 59.432 35.94 58.396 35.94 Z " fill="rgb(255,193,7)"/><path d=" M 28.556 28.052 C 29.304 30.718 31.555 37.066 36.613 39.987 C 39.862 41.863 43.271 42.971 46.21 43.107 C 48.785 43.221 50.693 42.555 51.438 41.265 C 52.183 39.975 51.811 37.989 50.42 35.817 C 48.832 33.338 46.168 30.941 42.918 29.065 C 37.844 26.136 31.236 27.364 28.556 28.052 Z  M 46.796 45.879 C 46.562 45.879 46.325 45.873 46.083 45.862 C 42.711 45.706 38.858 44.468 35.234 42.375 C 27.668 38.007 25.627 27.79 25.544 27.358 C 25.415 26.684 25.799 26.019 26.447 25.794 C 26.863 25.65 36.732 22.307 44.297 26.676 C 47.922 28.768 50.921 31.486 52.742 34.327 C 54.739 37.445 55.124 40.398 53.827 42.644 C 52.615 44.743 50.133 45.879 46.796 45.879 Z " fill="rgb(255,193,7)"/><path d=" M 21.922 52.816 C 23.904 54.752 29.026 59.122 34.865 59.122 C 42.808 59.122 48.343 55.798 48.343 52.816 C 48.343 49.834 42.808 46.51 34.865 46.51 C 29.026 46.51 23.904 50.88 21.922 52.816 Z  M 34.865 61.88 C 26.13 61.88 19.253 54.051 18.965 53.718 C 18.516 53.201 18.516 52.432 18.965 51.914 C 19.253 51.581 26.13 43.753 34.865 43.753 C 43.97 43.753 51.102 47.733 51.102 52.816 C 51.102 57.899 43.97 61.88 34.865 61.88 Z " fill="rgb(255,193,7)"/><path d=" M 35.924 64.451 L 35.933 64.451 L 35.924 64.451 Z  M 28.555 77.577 C 31.238 78.264 37.861 79.488 42.919 76.567 C 46.169 74.69 48.833 72.293 50.421 69.815 C 51.812 67.643 52.184 65.657 51.439 64.367 C 49.947 61.783 43.492 61.674 36.613 65.645 C 31.539 68.575 29.299 74.913 28.555 77.577 Z  M 35.048 81.195 C 30.448 81.195 26.701 79.926 26.447 79.838 C 25.8 79.613 25.416 78.948 25.545 78.275 C 25.628 77.842 27.669 67.624 35.235 63.257 C 43.118 58.704 51.285 58.585 53.827 62.987 C 55.125 65.234 54.739 68.187 52.743 71.304 C 50.922 74.145 47.923 76.863 44.298 78.955 C 41.333 80.668 38.013 81.195 35.048 81.195 Z " fill="rgb(255,193,7)"/><path d=" M 46.5 80.653 L 46.509 80.653 L 46.5 80.653 Z  M 58.364 72.447 C 57.238 72.447 55.883 72.921 54.446 73.841 C 51.968 75.429 49.571 78.093 47.694 81.342 C 44.765 86.417 45.994 93.026 46.682 95.705 C 49.348 94.957 55.696 92.706 58.616 87.648 C 60.492 84.399 61.601 80.99 61.736 78.05 C 61.856 75.472 61.185 73.568 59.895 72.823 C 59.458 72.57 58.941 72.447 58.364 72.447 Z  M 45.726 98.742 C 45.148 98.742 44.619 98.378 44.423 97.814 C 44.279 97.397 40.938 87.528 45.306 79.964 C 47.398 76.339 50.116 73.34 52.958 71.519 C 56.074 69.521 59.027 69.136 61.274 70.434 C 63.52 71.731 64.663 74.481 64.492 78.177 C 64.336 81.55 63.098 85.403 61.005 89.028 C 56.638 96.592 46.42 98.633 45.987 98.716 C 45.899 98.734 45.812 98.742 45.726 98.742 Z " fill="rgb(255,193,7)"/><path d=" M 96.142 62.529 C 93.836 62.529 92.131 63.191 91.452 64.367 C 90.707 65.657 91.079 67.643 92.471 69.815 C 94.059 72.293 96.723 74.69 99.972 76.567 C 105.046 79.497 111.655 78.269 114.334 77.58 C 113.586 74.914 111.336 68.565 106.278 65.645 C 102.529 63.48 98.905 62.529 96.142 62.529 Z  M 107.843 81.195 C 104.877 81.195 101.559 80.668 98.593 78.955 C 94.969 76.863 91.97 74.145 90.148 71.303 C 88.152 68.187 87.767 65.234 89.063 62.987 C 91.605 58.586 99.773 58.703 107.657 63.257 C 115.222 67.624 117.263 77.842 117.346 78.275 C 117.475 78.948 117.091 79.613 116.444 79.838 C 116.19 79.925 112.442 81.195 107.843 81.195 Z " fill="rgb(255,193,7)"/><path d=" M 108.026 46.51 C 100.083 46.51 94.547 49.833 94.547 52.816 C 94.547 55.798 100.083 59.121 108.026 59.121 C 113.885 59.121 118.994 54.753 120.97 52.818 C 118.989 50.883 113.866 46.51 108.026 46.51 Z  M 108.026 61.88 C 98.921 61.88 91.789 57.899 91.789 52.816 C 91.789 47.733 98.921 43.752 108.026 43.752 C 116.761 43.752 123.637 51.58 123.926 51.913 C 124.375 52.432 124.375 53.2 123.926 53.718 C 123.637 54.051 116.761 61.88 108.026 61.88 Z " fill="rgb(255,193,7)"/><path d=" M 106.967 41.181 L 106.976 41.181 L 106.967 41.181 Z  M 107.813 27.206 C 105.25 27.206 102.426 27.648 99.972 29.065 C 96.722 30.941 94.058 33.338 92.47 35.817 C 91.078 37.989 90.707 39.975 91.452 41.265 C 92.943 43.849 99.399 43.957 106.278 39.987 C 111.352 37.057 113.592 30.719 114.336 28.055 C 112.955 27.702 110.53 27.206 107.813 27.206 Z  M 96.14 45.869 C 92.896 45.869 90.306 44.797 89.063 42.644 C 87.766 40.398 88.152 37.445 90.148 34.327 C 91.969 31.486 94.968 28.768 98.592 26.676 C 106.157 22.309 116.027 25.649 116.444 25.794 C 117.091 26.019 117.475 26.684 117.346 27.358 C 117.263 27.79 115.222 38.007 107.656 42.375 C 103.63 44.701 99.528 45.869 96.14 45.869 Z " fill="rgb(255,193,7)"/><path d=" M 96.391 24.979 L 96.4 24.979 L 96.391 24.979 Z  M 96.209 9.927 C 93.543 10.675 87.195 12.925 84.274 17.984 C 80.303 24.863 80.413 31.318 82.996 32.809 C 85.58 34.301 91.225 31.167 95.197 24.29 C 98.126 19.214 96.897 12.606 96.209 9.927 Z  M 84.494 35.94 C 83.459 35.94 82.488 35.701 81.617 35.198 C 77.215 32.656 77.333 24.489 81.886 16.605 C 86.253 9.04 96.471 6.999 96.904 6.916 C 97.577 6.788 98.243 7.169 98.467 7.818 C 98.612 8.235 101.953 18.103 97.585 25.668 C 93.933 31.995 88.695 35.94 84.494 35.94 Z " fill="rgb(255,193,7)"/><path d=" M 3.74 204.112 L 50.061 204.112 C 53.643 197.552 60.383 191.94 69.321 188.031 C 62.863 186.108 55.769 185.1 48.582 185.1 C 28.551 185.1 10.936 192.657 3.74 204.112 Z  M 50.894 206.87 L 1.379 206.87 C 0.901 206.87 0.456 206.623 0.205 206.215 C -0.046 205.807 -0.068 205.299 0.147 204.872 C 6.926 191.396 26.39 182.342 48.582 182.342 C 57.429 182.342 66.154 183.818 73.813 186.611 C 74.357 186.81 74.719 187.328 74.719 187.907 C 74.719 188.486 74.357 189.005 73.813 189.203 C 63.407 192.999 55.705 199.004 52.126 206.112 C 51.892 206.577 51.415 206.87 50.894 206.87 Z " fill="rgb(76,175,80)"/><path d=" M 53.256 204.112 L 142.94 204.112 C 135.744 192.657 118.129 185.1 98.098 185.1 C 78.067 185.1 60.452 192.657 53.256 204.112 Z  M 145.301 206.87 L 50.895 206.87 C 50.417 206.87 49.972 206.623 49.721 206.215 C 49.47 205.807 49.448 205.299 49.663 204.872 C 56.442 191.396 75.907 182.342 98.098 182.342 C 120.289 182.342 139.754 191.396 146.533 204.872 C 146.748 205.299 146.726 205.807 146.475 206.215 C 146.224 206.623 145.78 206.87 145.301 206.87 Z " fill="rgb(76,175,80)"/><path d=" M 68.999 185.067 C 70.478 185.481 71.929 185.94 73.329 186.438 C 73.425 186.403 73.522 186.37 73.618 186.336 L 73.618 75.918 L 68.999 75.918 L 68.999 185.067 Z  M 74.998 187.322 L 75.007 187.322 L 74.998 187.322 Z  M 73.329 189.283 C 73.169 189.283 73.009 189.254 72.857 189.199 C 71.07 188.548 69.19 187.961 67.269 187.455 C 66.663 187.296 66.241 186.748 66.241 186.121 L 66.241 74.539 C 66.241 73.777 66.858 73.16 67.62 73.16 L 74.998 73.16 C 75.759 73.16 76.376 73.777 76.376 74.539 L 76.376 187.322 C 76.376 187.915 75.997 188.442 75.434 188.63 C 74.883 188.814 74.339 189.004 73.801 189.199 C 73.649 189.254 73.489 189.283 73.329 189.283 Z " fill="rgb(76,175,80)"/><path d=" M 71.445 32.472 C 60.228 32.472 51.102 41.598 51.102 52.816 C 51.102 59.279 54.131 65.048 58.844 68.777 C 62.312 71.521 66.691 73.16 71.445 73.16 C 76.798 73.16 81.675 71.082 85.311 67.691 C 89.295 63.974 91.789 58.681 91.789 52.816 C 91.789 41.598 82.663 32.472 71.445 32.472 Z  M 71.445 75.917 C 58.707 75.917 48.343 65.554 48.343 52.816 C 48.343 40.076 58.707 29.713 71.445 29.713 C 84.184 29.713 94.547 40.076 94.547 52.816 C 94.547 65.554 84.184 75.917 71.445 75.917 Z " fill="rgb(255,193,7)"/></g></svg>