<svg xmlns="http://www.w3.org/2000/svg" viewBox="0 0 750 750"><defs><style>.cls-1{fill:#509cff;}.cls-2{fill:#81df18;}.cls-3{fill:#52aa63;}</style></defs><title>Scan 1</title><g id="Layer_3" data-name="Layer 3"><rect class="cls-1" x="109.71" y="298.76" width="312.89" height="11"/><path class="cls-1" d="M420,309.76a5.5,5.5,0,0,1,0-11,23,23,0,1,0-20.57-33.38,5.5,5.5,0,1,1-9.82-4.95A34,34,0,1,1,420,309.76Z"/><rect class="cls-1" x="194.42" y="346.9" width="312.89" height="11"/><path class="cls-1" d="M504.71,357.9a5.5,5.5,0,1,1,0-11,23,23,0,1,0-20.57-33.37,5.5,5.5,0,0,1-9.82-4.95,34,34,0,1,1,30.39,49.32Z"/><rect class="cls-1" x="196.15" y="475.96" width="312.89" height="11"/><path class="cls-1" d="M506.44,544a33.88,33.88,0,0,1-30.39-18.71,5.5,5.5,0,1,1,9.82-5A23,23,0,1,0,506.44,487a5.5,5.5,0,0,1,0-11,34,34,0,1,1,0,68Z"/><rect class="cls-1" x="107.98" y="515.79" width="312.89" height="11"/><path class="cls-1" d="M418.28,583.84a33.86,33.86,0,0,1-30.39-18.72,5.5,5.5,0,1,1,9.82-5,23,23,0,1,0,20.57-33.38,5.5,5.5,0,0,1,0-11,34,34,0,0,1,0,68.05Z"/><path class="cls-1" d="M467.55,400.44H111.44a5.5,5.5,0,0,1,0-11H467.55a5.5,5.5,0,0,1,0,11Z"/><path class="cls-1" d="M540.15,445.21H184a5.5,5.5,0,0,1,0-11H540.15a5.5,5.5,0,0,1,0,11Z"/><path class="cls-2" d="M350,240.7c-14,10.18-32.86,8-42.2-4.78s-5.59-31.45,8.38-41.62,49.55-8.89,53-4.21C372.73,195.07,363.91,230.52,350,240.7Z"/><path class="cls-3" d="M330.6,252.61a33.39,33.39,0,0,1-27.29-13.45,32.82,32.82,0,0,1-5.5-26.12,38.07,38.07,0,0,1,15.08-23.19c9.89-7.21,26.72-8.5,33.5-8.73s22.9-.11,27.15,5.73c1.46,2,4.16,8.76-2.19,28.3-2.66,8.2-8.57,23-18.16,30A38.39,38.39,0,0,1,330.6,252.61Zm19.26-60.56c-10.55,0-23.63,1.69-30.49,6.69a27.08,27.08,0,0,0-10.78,16.47,22,22,0,0,0,3.61,17.48c7.54,10.34,23,11.94,34.51,3.56h0c11.05-8.05,18.3-35.55,17.73-42.65C361.93,192.7,356.38,192.05,349.86,192.05ZM365.32,194Z"/><line class="cls-2" x1="328.46" y1="221.63" x2="285.53" y2="260.86"/><path class="cls-3" d="M285.54,266.36a5.5,5.5,0,0,1-3.72-9.56l42.93-39.23a5.5,5.5,0,1,1,7.42,8.12l-42.93,39.23A5.43,5.43,0,0,1,285.54,266.36Z"/><path class="cls-2" d="M604,415.74c-16.84,3.9-33.38-5.47-37-20.92s7.18-31.13,24-35,49.07,11.24,50.38,16.89C642.82,382.7,620.82,411.85,604,415.74Z"/><path class="cls-3" d="M596.36,422.12c-16.44,0-31.07-10.45-34.68-26.06a32.83,32.83,0,0,1,5.18-26.2,38,38,0,0,1,23-15.42c11.92-2.76,27.92,2.65,34.24,5.1s21.11,8.87,22.73,15.91c.56,2.41.4,9.69-13.1,25.17-5.66,6.5-16.9,17.81-28.46,20.48h0A39.34,39.34,0,0,1,596.36,422.12Zm1.1-57.49a22.81,22.81,0,0,0-5.17.53,27.1,27.1,0,0,0-16.36,10.92,22,22,0,0,0-3.53,17.5c2.88,12.47,16.49,20,30.35,16.81,13.32-3.08,30.77-25.55,33-32.29C631.27,373.9,611.29,364.63,597.46,364.63Zm39,14.18Zm-.42-1.64Z"/><line class="cls-2" x1="591.69" y1="389.78" x2="536.82" y2="409.05"/><path class="cls-3" d="M536.82,414.55A5.5,5.5,0,0,1,535,403.86l54.87-19.27A5.5,5.5,0,0,1,593.52,395l-54.88,19.27A5.48,5.48,0,0,1,536.82,414.55Z"/><path class="cls-2" d="M242.07,569.87c-14-10.18-32.86-8-42.19,4.77s-5.59,31.45,8.37,41.63,49.55,8.89,53,4.2C264.85,615.49,256,580.05,242.07,569.87Z"/><path class="cls-3" d="M242.11,629.5c-1.37,0-2.59,0-3.6-.06-6.78-.22-23.61-1.52-33.5-8.73a38,38,0,0,1-15.08-23.18,32.85,32.85,0,0,1,5.5-26.13c11.11-15.24,33.49-17.92,49.88-6h0c9.59,7,15.5,21.8,18.16,30,6.35,19.54,3.65,26.29,2.19,28.29C262.05,628.67,249.83,629.5,242.11,629.5Zm-19.42-60.56a22.4,22.4,0,0,0-18.37,8.94,21.93,21.93,0,0,0-3.6,17.48,27.07,27.07,0,0,0,10.77,16.47c11.11,8.09,38.51,7.51,45.07,5.13.57-7.09-6.68-34.6-17.73-42.65h0A27.48,27.48,0,0,0,222.69,568.94Zm34.75,47.62Z"/><line class="cls-2" x1="220.59" y1="588.93" x2="177.65" y2="549.7"/><path class="cls-3" d="M220.58,594.43a5.47,5.47,0,0,1-3.7-1.43l-42.94-39.24a5.5,5.5,0,1,1,7.42-8.12l42.94,39.23a5.5,5.5,0,0,1-3.72,9.56Z"/></g></svg>