<svg xmlns="http://www.w3.org/2000/svg" viewBox="0 0 750 750"><defs><style>.cls-1{fill:#87d3f5;}.cls-2{fill:#52aa63;}.cls-3{fill:#81df18;}</style></defs><title>Scan 1</title><g id="Layer_3" data-name="Layer 3"><path class="cls-1" d="M186.65,388.07l-10-4.48c0-.09.07-.17.1-.26s.19-.48.3-.73l10.06,4.46c0,.08-.07.17-.11.26C186.86,387.57,186.76,387.82,186.65,388.07Z"/><path class="cls-2" d="M254.53,496.91l-57.32-63.69a41.17,41.17,0,0,1-10.59-28.09l.24-20.37,11,.14-.24,20.36a30.21,30.21,0,0,0,7.77,20.61l57.31,63.68Z"/><path class="cls-2" d="M340.39,626.5h-99A12.32,12.32,0,0,1,229,614.2V590.72a33.38,33.38,0,0,0-4.5-16.75L153.65,451.51a45.22,45.22,0,0,1-6.08-22.64V264.4c0-13.58,11.07-25.76,24.17-26.6a25.85,25.85,0,0,1,27.56,25.39v.17l0,.92L198,370.91c4.81-2.39,10.71-3.08,17.41-1.94a45.2,45.2,0,0,1,26.41,15.36L348.17,507.8a20,20,0,0,1,4.83,13V613.9A12.62,12.62,0,0,1,340.39,626.5ZM173.44,248.75l-1,0c-7.39.47-13.87,7.77-13.87,15.62V428.87a34.23,34.23,0,0,0,4.6,17.13l70.89,122.46a44.37,44.37,0,0,1,6,22.26V614.2a1.3,1.3,0,0,0,1.3,1.3h99a1.61,1.61,0,0,0,1.61-1.6V520.82a8.92,8.92,0,0,0-2.17-5.84L233.51,391.5a34.18,34.18,0,0,0-19.92-11.68c-11.52-2-14.66,4.15-15.69,6.16a5.83,5.83,0,0,1-11-2.71l1.39-119.37,0-.68a14.85,14.85,0,0,0-14.86-14.47Z"/><path class="cls-1" d="M555.32,388.07c-.11-.25-.21-.5-.31-.75a2,2,0,0,0-.1-.26L565,382.6c.11.25.2.49.3.73a2.77,2.77,0,0,0,.1.26Z"/><path class="cls-2" d="M495.86,496.91l-8.18-7.36L545,425.87a30.21,30.21,0,0,0,7.77-20.61l-.24-20.36,11-.14.24,20.37a41.13,41.13,0,0,1-10.6,28.09Z"/><path class="cls-2" d="M509,626.5H410a12.61,12.61,0,0,1-12.6-12.6V520.82a19.94,19.94,0,0,1,4.83-13L508.39,384.5A45.56,45.56,0,0,1,535,369c6.71-1.13,12.61-.45,17.41,1.94l-1.24-106.63,0-.92v-.17a25.92,25.92,0,0,1,8.67-18.9,25.6,25.6,0,0,1,19.84-6.41c13,1.3,23.23,13,23.23,26.57V428.87a45.22,45.22,0,0,1-6.08,22.64L525.84,574a33.48,33.48,0,0,0-4.5,16.75V614.2A12.32,12.32,0,0,1,509,626.5Zm32-247.06a24.72,24.72,0,0,0-4.23.38,34.49,34.49,0,0,0-20.06,11.86L410.56,515a8.92,8.92,0,0,0-2.17,5.84V613.9a1.6,1.6,0,0,0,1.6,1.6H509a1.3,1.3,0,0,0,1.3-1.3V590.72a44.47,44.47,0,0,1,6-22.26L587.22,446a34.23,34.23,0,0,0,4.6-17.13V264.45c0-8-5.85-14.88-13.32-15.63a14.87,14.87,0,0,0-16.42,14.4l0,.85,1.39,119.2a5.82,5.82,0,0,1-11,2.7C551.6,384.24,549.13,379.44,541,379.44Zm21.25,1.5h0Z"/><path class="cls-3" d="M340.9,151.37c26,26,25.05,69.25-2.21,96.5s-70.46,28.24-96.49,2.21-30.42-106.06-20.45-116C232.35,123.45,314.86,125.33,340.9,151.37Z"/><path class="cls-2" d="M288.42,274.44A70.35,70.35,0,0,1,238.31,254C221,236.62,214.84,201.17,213,186.73a189.75,189.75,0,0,1-1.42-34.35c1.07-17,5-20.94,6.27-22.22,8.8-8.8,40.72-8.33,58.19-6.66,14.87,1.41,51.34,6.59,68.74,24h0c28.14,28.15,27.15,74.92-2.21,104.28A76.63,76.63,0,0,1,288.42,274.44ZM255.68,133.49c-17.05,0-28,2.44-30,4.45-2.45,2.67-5.11,20.93-1.67,47.78,3.54,27.56,11.81,50.16,22.11,60.47,23.86,23.85,63.66,22.86,88.73-2.21s26.05-64.86,2.2-88.72c-10.32-10.32-33.5-18.1-62-20.81C268,133.77,261.46,133.49,255.68,133.49Z"/><path class="cls-3" d="M489.16,279c-25.07,21.76-61.57,20.75-81.53-2.25s-15.83-59.28,9.24-81,93.38-25.09,100.68-16.67C525.31,188,514.22,257.28,489.16,279Z"/><path class="cls-2" d="M448.11,300.18c-16.89,0-33.22-6.65-44.63-19.8C392.8,268.08,388,252,389.9,235.17a68,68,0,0,1,23.36-43.58c16.69-14.48,47.49-19.48,60-21,6.71-.79,40.57-4.29,48.49,4.83,1.86,2.15,4.27,6.58,3.7,20.17A168.94,168.94,0,0,1,521,225.49c-2.92,12.51-11.51,43.16-28.26,57.7A68.33,68.33,0,0,1,448.11,300.18Zm47-119.82c-22.23,0-58.05,5.14-74.64,19.54a57,57,0,0,0-19.64,36.52c-1.57,13.75,2.32,26.81,10.95,36.75,18,20.67,51,21.44,73.77,1.71h0c9.74-8.46,18.9-27.43,24.49-50.77,5.32-22.19,5-38.24,3.37-41.38C511.22,181.25,504.33,180.36,495.11,180.36Zm18.45,2.48Z"/><path class="cls-2" d="M368.81,412.49a5.49,5.49,0,0,1-5.46-4.94,130.25,130.25,0,0,1-.45-13.8c-2.17-50.74-11.76-114.9-42.79-157.14-10.44-14.21-20.73-22.27-27.52-26.52-7.33-4.6-12.28-5.88-12.32-5.89a5.5,5.5,0,0,1,2.58-10.7c.94.23,23.07,5.79,45.35,35.55,20.72,27.68,34.55,66.07,41.35,114.59q.81-3.24,1.77-6.57c10.25-35.57,35-84.51,94.66-115.67a5.5,5.5,0,0,1,5.09,9.75c-24.84,13-45.38,30.25-61,51.35a179.66,179.66,0,0,0-28.15,57.62,206.89,206.89,0,0,0-8,53.75q.26,6.4.39,13a5.5,5.5,0,0,1-5.17,5.6Z"/></g></svg>