<svg xmlns="http://www.w3.org/2000/svg" viewBox="0 0 750 750"><defs><style>.cls-1{fill:#9382b5;}.cls-2{fill:#5e3e87;}</style></defs><title>Scan 1</title><g id="Layer_3" data-name="Layer 3"><circle class="cls-1" cx="172.12" cy="279.2" r="31.56"/><path class="cls-2" d="M172.12,316.25a37.06,37.06,0,1,1,37.06-37.05A37.09,37.09,0,0,1,172.12,316.25Zm0-63.11a26.06,26.06,0,1,0,26.06,26.06A26.09,26.09,0,0,0,172.12,253.14Z"/><circle class="cls-1" cx="582.39" cy="542.19" r="31.56"/><path class="cls-2" d="M582.39,579.25a37.06,37.06,0,1,1,37.06-37.06A37.1,37.1,0,0,1,582.39,579.25Zm0-63.12a26.06,26.06,0,1,0,26.06,26.06A26.09,26.09,0,0,0,582.39,516.13Z"/><circle class="cls-1" cx="231.73" cy="188.02" r="21.04"/><path class="cls-2" d="M231.73,214.56A26.54,26.54,0,1,1,258.27,188,26.57,26.57,0,0,1,231.73,214.56Zm0-42.07A15.54,15.54,0,1,0,247.27,188,15.55,15.55,0,0,0,231.73,172.49Z"/><path class="cls-2" d="M375.5,472.3c-67.25,0-130.52-4.19-178.15-11.79-23.39-3.74-41.84-8.11-54.81-13-15.65-5.91-23.26-12.69-23.26-20.73,0-8.76,8-21.07,76.93-26.82l.91,11c-62.91,5.25-66.84,15.76-66.84,15.86,0,3.31,12.36,13.86,68.8,22.87,47.08,7.52,109.73,11.66,176.42,11.66s129.34-4.14,176.42-11.66c56.44-9,68.8-19.56,68.8-22.87,0-.09-2.78-10.39-73.82-15.85l.84-11c74.44,5.72,84,17.34,84,26.82,0,8-7.61,14.82-23.26,20.73-13,4.9-31.42,9.27-54.81,13C506,468.11,442.75,472.3,375.5,472.3Z"/><path class="cls-2" d="M373.8,418c-63.45,0-123-3.26-172.3-9.42l-5.09-.63.28-5.12a175.58,175.58,0,0,1,350.65.48l.27,5.13-5.11.61C493.62,414.85,435.28,418,373.8,418ZM208,398.25c47.8,5.69,105,8.7,165.77,8.7,58.89,0,114.83-2.86,162.21-8.26a162.56,162.56,0,0,0-18.81-63.76A164.56,164.56,0,0,0,208,398.25Z"/><path class="cls-2" d="M372,588c-96.81,0-175.57-78.76-175.57-175.56,0-3.49.09-6.66.27-9.7l.34-5.86,5.83.73C251.69,403.72,310.8,407,373.8,407c61.05,0,118.94-3.07,167.39-8.87l5.86-.7.29,5.89c.15,3,.22,6.13.22,9.18C547.56,509.25,468.8,588,372,588ZM207.45,409.26c0,1,0,2.09,0,3.19C207.42,503.19,281.25,577,372,577s164.57-73.82,164.57-164.56c0-.92,0-1.83,0-2.75C488.91,415.1,432.81,418,373.8,418,312.89,418,255.54,415,207.45,409.26Z"/><path class="cls-2" d="M204.37,409.54l-5.85-.72c-27.81-3.44-50.87-7.9-66.69-12.91-19.33-6.13-28.33-13-28.33-21.74,0-9.38,10.58-16.75,33.3-23.23,18.89-5.37,46.06-10,78.58-13.36l10.26-1.07-4.83,9.11a139,139,0,0,0-16.12,58Zm2.26-59.94c-27.51,3.17-50.46,7.27-66.81,11.92-24.23,6.9-25.32,12.59-25.32,12.65s3.49,13,79.64,23A149.33,149.33,0,0,1,206.63,349.6Z"/><path class="cls-2" d="M540.4,410l-.31-5.87a143.74,143.74,0,0,0-16.9-60.82l-4.87-9.09,10.26,1c34.54,3.45,63.45,8.24,83.61,13.88,24.09,6.73,35.31,14.4,35.31,24.12,0,9-9.56,16.21-30.09,22.58-16.9,5.25-41.51,9.91-71.17,13.48Zm-3-62.77a154.4,154.4,0,0,1,13.27,50.44c69.88-8.93,85.84-20.86,85.84-24.43,0-.06-.74-6.11-27.27-13.53C591.61,354.77,566.92,350.48,537.39,347.21Z"/></g></svg>