<svg xmlns="http://www.w3.org/2000/svg" viewBox="0 0 750 750"><defs><style>.cls-1{fill:#d87b00;}.cls-2{fill:#f4b64c;}</style></defs><title>Scan 1</title><g id="Layer_3" data-name="Layer 3"><path d="M439.23,347.53l.73-13.2c1.33-24.08-3.3-51-13.75-79.91l10.35-3.73c9.07,25.13,13.95,48.9,14.56,70.85,9.49-9.61,24.32-25.88,35.23-43.79l9.39,5.72c-18.12,29.74-45.48,54.24-46.64,55.27Z"/><path class="cls-1" d="M375,660.9c-116.26,0-210.85-94.59-210.85-210.85,0-5.81.23-11.51.68-16.94h0c.49-7.22,8.91-98.08,96.72-192.16,28.25-30.27,48.89-59,61.35-85.29,10.55-22.3,12.46-37.34,12.67-44.32a8.14,8.14,0,0,1,14.36-5c14.19,16.83,62.39,77,86.62,144.39,9.07,25.13,13.95,48.9,14.56,70.85,9.49-9.61,24.32-25.88,35.23-43.79,6.12-10,10.31-19.43,12.44-27.94a9.09,9.09,0,0,1,15.53-4c14.36,15.56,49.77,63,68.24,166.92l.07.36.28,1.66c.38,2.2.5,2.94.56,3.36.24,1.63.45,3.25.66,4.91.18,1.39.37,2.79.49,4.26.22,2,.4,4,.55,5.86.45,5.41.68,11.11.68,16.92C585.85,566.31,491.26,660.9,375,660.9ZM346,118.78c-2.69,21.06-16.31,65.3-76.39,129.67-44.92,48.13-67.94,95.19-79.34,126.19-13,35.34-14.44,58.72-14.45,58.94l0,.43c-.42,5.14-.64,10.53-.64,16,0,110.2,89.65,199.85,199.85,199.85s199.85-89.65,199.85-199.85c0-5.51-.22-10.9-.64-16-.15-1.84-.32-3.72-.53-5.61v-.12c-.11-1.25-.28-2.54-.45-3.85-.21-1.65-.42-3.23-.65-4.81l0-.24c-.07-.46-.28-1.67-.47-2.76-.1-.56-.19-1.1-.26-1.5a5.42,5.42,0,0,1-.12-.68c-5.91-33.16-23.7-113.55-63.15-158.61a118.93,118.93,0,0,1-12.8,27.65c-18.12,29.73-45.48,54.23-46.64,55.26l-9.87,8.79.73-13.2c1.33-24.08-3.3-51-13.75-79.91C404.7,194.55,363.64,140.39,346,118.78Z"/><path class="cls-2" d="M487.59,544.82a111.19,111.19,0,0,1-222.37,0c0-3,.12-6,.36-8.93v0c0-1.41,3.66-50.88,51.58-102.22,35.72-38.27,40.61-62.85,40.88-72.12a1.43,1.43,0,0,1,2.52-.89c8.43,10,33.56,41.6,46.37,77.26,5.25,14.53,8.43,29.74,7.62,44.44,0,0,15-13.34,24.68-29.25a58.65,58.65,0,0,0,7.09-15.95,2,2,0,0,1,3.33-.88c7,7.6,26.23,32.78,36.2,88.88a.5.5,0,0,0,0,.16c.11.69.42,2.42.44,2.62.13.87.24,1.75.36,2.64.09.73.19,1.48.26,2.23.11,1,.21,2.07.29,3.11C487.47,538.83,487.59,541.82,487.59,544.82Z"/><path class="cls-1" d="M376.4,661.5A116.82,116.82,0,0,1,259.72,544.82c0-3.22.13-6.37.38-9.38h0c.4-5.24,5.57-54.7,53-105.55,9.06-9.71,38.67-43.33,39.4-68.53a6.92,6.92,0,0,1,12.22-4.28c7.76,9.19,34.09,42,47.35,78.95a132.2,132.2,0,0,1,7.69,33.27,125.58,125.58,0,0,0,14.74-19.08A53.35,53.35,0,0,0,441,435.8a7.45,7.45,0,0,1,12.71-3.28c7.92,8.59,27.43,34.69,37.56,91.55l.06.32.16.93c.2,1.18.27,1.6.3,1.88.13.88.25,1.76.36,2.66s.21,1.57.28,2.38c.12,1.07.22,2.14.3,3.22.25,3,.37,6.14.37,9.36A116.81,116.81,0,0,1,376.4,661.5ZM271.08,536l0,.39c-.22,2.7-.34,5.55-.34,8.47a105.68,105.68,0,0,0,211.36,0c0-2.92-.11-5.77-.33-8.47-.08-1-.17-2-.28-3v-.13c-.06-.66-.15-1.32-.24-2-.11-.89-.22-1.73-.34-2.57l0-.19c0-.28-.14-.82-.22-1.33l-.14-.78c0-.14-.06-.3-.09-.49-2.39-13.38-11.25-56-30.79-81.19A72.67,72.67,0,0,1,443.93,456c-10,16.41-25.09,29.92-25.73,30.49l-9.87,8.79.73-13.2c.7-12.7-1.76-26.92-7.3-42.27-10.29-28.64-29-54.87-39.58-68.41-3.06,13.16-12.59,35.6-41,66C275,486.93,271.18,534.37,271.08,536Z"/></g></svg>