<svg xmlns="http://www.w3.org/2000/svg" viewBox="0 0 750 750"><defs><style>.cls-1{fill:#1675ba;}.cls-2{fill:#87d3f5;}</style></defs><title>Scan 1</title><g id="Layer_3" data-name="Layer 3"><path class="cls-1" d="M375.5,661.51q-8.67,0-17.41-.74A200.58,200.58,0,0,1,175.33,461.36c0-3.91.12-7.83.36-11.67v-.6c.12-1.94.28-3.86.46-5.72,1.65-14.32,9.32-53.43,45-109.19,14.79-23.2,33.09-47.07,54.37-70.95,24.82-27.82,84.1-97.88,98.59-147.33A10.39,10.39,0,0,1,391.93,112c28.19,32.8,123.44,149,165.49,266.46,8.32,23.14,14.13,45.34,17.26,66l0,.29c.15,1.54.28,3.16.38,4.82.22,4.11.33,8.11.33,11.91A199.89,199.89,0,0,1,375.5,661.51ZM186.69,449.62l0,.59c-.22,3.66-.34,7.41-.34,11.15A189.6,189.6,0,0,0,359,649.81c5.55.47,11.08.7,16.56.7a187.09,187.09,0,0,0,127.74-49.86,189.63,189.63,0,0,0,61.12-139.2c0-3.65-.1-7.34-.32-11.29-.08-1.44-.19-2.87-.32-4.23-3-19.89-8.66-41.34-16.72-63.77C536.62,353,494.05,247.94,384.33,120c-6.64,21.84-28.54,69.69-100.63,150.52-20.89,23.44-38.83,46.84-53.31,69.55-34.41,53.83-41.74,91-43.29,104.44C186.94,446.13,186.8,447.87,186.69,449.62Z"/><path class="cls-2" d="M426.8,579.26c2.06,0,2.61,2.94.74,4-33.18,18.64-72.62,22.86-108.65,8.06-65.76-27-95.14-107.13-65.63-179,.74-1.79,1.5-3.56,2.3-5.31a2,2,0,0,1,3.78.75C258.79,476.06,297.73,540.2,362.87,567A163.13,163.13,0,0,0,426.8,579.26Z"/><path class="cls-1" d="M364.2,605.71a124.61,124.61,0,0,1-47.4-9.31c-33.25-13.66-58.68-40.6-71.61-75.87-12.87-35.09-11.81-74.25,3-110.27.76-1.84,1.56-3.69,2.38-5.5a7.53,7.53,0,0,1,8.48-4.34,7.42,7.42,0,0,1,5.81,7.41c-.55,68.37,38.75,128.83,100.12,154a157.62,157.62,0,0,0,61.78,11.89h.08a7.28,7.28,0,0,1,7.1,5.5,7.77,7.77,0,0,1-3.69,8.79A135,135,0,0,1,364.2,605.71ZM254.5,424.89c-10,30.48-9.67,62.7,1,91.85,11.85,32.34,35.1,57,65.46,69.48,29.16,12,62.06,11.19,92-1.87A170.13,170.13,0,0,1,281.83,505.9,178.62,178.62,0,0,1,254.5,424.89ZM426.86,584.76h0Z"/></g></svg>